{"glyphs":{"0":{"ha":501,"x_min":0,"x_max":0,"o":"m 467 958 b 299 1139 467 1090 414 1139 l 190 1139 b 35 958 79 1139 35 1093 l 35 175 b 201 -6 35 46 86 -6 l 310 -6 b 467 175 421 -6 467 40 z m 282 175 b 250 140 282 153 265 140 b 218 175 235 140 218 153 l 218 958 b 251 994 218 982 236 994 b 282 958 267 994 282 982 z "},"1":{"ha":363,"x_min":0,"x_max":0,"o":"m 138 0 l 321 0 l 321 1131 l 168 1131 b 14 964 168 1049 115 964 l 14 850 l 138 850 z "},"2":{"ha":488,"x_min":0,"x_max":0,"o":"m 28 0 l 460 0 l 460 139 l 219 139 l 219 169 b 446 732 219 358 446 499 l 446 960 b 289 1139 446 1093 400 1139 l 178 1139 b 31 960 63 1139 31 1089 l 31 750 l 201 750 l 201 961 b 232 996 201 983 215 996 b 264 961 250 996 264 983 l 264 788 b 28 208 264 549 28 418 z "},"3":{"ha":500,"x_min":0,"x_max":0,"o":"m 219 958 b 250 994 219 982 235 994 b 281 958 265 994 281 982 l 281 693 b 251 658 281 672 267 658 l 150 658 l 150 511 l 249 511 b 281 476 264 511 281 499 l 281 175 b 250 139 281 151 265 139 b 219 175 235 139 219 151 l 219 403 l 35 403 l 35 175 b 203 -6 35 43 88 -6 l 297 -6 b 465 175 413 -6 465 43 l 465 410 b 356 586 465 522 433 574 b 465 764 433 601 465 649 l 465 958 b 297 1139 465 1090 413 1139 l 203 1139 b 35 958 88 1139 35 1090 l 35 778 l 219 778 z "},"4":{"ha":519,"x_min":0,"x_max":0,"o":"m 267 0 l 447 0 l 447 271 l 506 271 l 506 413 l 447 413 l 447 1118 l 179 1118 l 14 433 l 14 271 l 267 271 z m 176 413 l 267 944 l 267 413 z "},"5":{"ha":500,"x_min":0,"x_max":0,"o":"m 438 1131 l 35 1131 l 35 556 l 219 556 l 219 625 b 249 660 219 646 233 660 b 281 625 264 660 281 647 l 281 161 b 250 125 281 138 265 125 b 219 161 235 125 219 138 l 219 403 l 35 403 l 35 175 b 203 -6 35 43 88 -6 l 297 -6 b 465 175 413 -6 465 43 l 465 643 b 329 806 465 769 446 806 b 218 765 292 806 244 803 l 218 992 l 438 992 z "},"6":{"ha":500,"x_min":0,"x_max":0,"o":"m 219 958 b 250 994 219 982 235 994 b 281 958 265 994 281 982 l 281 758 l 465 758 l 465 958 b 297 1139 465 1090 413 1139 l 203 1139 b 35 958 88 1139 35 1090 l 35 175 b 203 -6 35 43 88 -6 l 297 -6 b 465 175 413 -6 465 43 l 465 522 b 329 685 465 649 446 685 b 218 644 292 685 244 682 z m 281 175 b 250 139 281 151 265 139 b 219 175 235 139 219 151 l 219 518 b 249 553 219 539 233 553 b 281 518 264 553 281 540 z "},"7":{"ha":397,"x_min":0,"x_max":0,"o":"m 383 976 l 383 1131 l 14 1131 l 14 992 l 208 992 l 38 0 l 224 0 z "},"8":{"ha":500,"x_min":0,"x_max":0,"o":"m 297 -6 b 465 175 413 -6 465 43 l 465 410 b 356 586 465 522 433 574 b 465 764 433 601 465 649 l 465 958 b 297 1139 465 1090 413 1139 l 203 1139 b 35 958 88 1139 35 1090 l 35 764 b 144 586 35 649 67 601 b 35 410 67 574 35 522 l 35 175 b 203 -6 35 43 88 -6 z m 249 511 b 281 476 264 511 281 499 l 281 175 b 250 139 281 151 265 139 b 219 175 235 139 219 151 l 219 476 b 249 511 219 497 233 510 z m 219 958 b 250 994 219 982 235 994 b 281 958 265 994 281 982 l 281 693 b 251 658 281 672 267 658 b 219 693 236 658 219 671 z "},"9":{"ha":500,"x_min":0,"x_max":0,"o":"m 281 175 b 250 139 281 151 265 139 b 219 175 235 139 219 151 l 219 403 l 35 403 l 35 175 b 203 -6 35 43 88 -6 l 297 -6 b 465 175 413 -6 465 43 l 465 958 b 297 1139 465 1090 413 1139 l 203 1139 b 35 958 88 1139 35 1090 l 35 639 b 171 476 35 513 54 476 b 282 517 208 476 256 479 z m 219 958 b 250 994 219 982 235 994 b 281 958 265 994 281 982 l 281 643 b 251 608 281 622 267 608 b 219 643 236 608 219 621 z "}," ":{"ha":243,"x_min":0,"x_max":0,"o":""},"Â":{"ha":519,"x_min":0,"x_max":0,"o":"m 0 0 l 190 0 l 211 285 l 308 285 l 331 0 l 519 0 l 411 1131 l 113 1131 z m 260 936 l 297 438 l 222 438 z m 332 1203 l 497 1203 l 350 1375 l 179 1375 l 21 1203 l 193 1203 l 264 1282 z "},"Ä":{"ha":519,"x_min":0,"x_max":0,"o":"m 0 0 l 190 0 l 211 285 l 308 285 l 331 0 l 519 0 l 411 1131 l 113 1131 z m 260 936 l 297 438 l 222 438 z m 47 1361 l 47 1203 l 204 1203 l 204 1361 z m 313 1361 l 313 1203 l 472 1203 l 472 1361 z "},"À":{"ha":519,"x_min":0,"x_max":0,"o":"m 0 0 l 190 0 l 211 285 l 308 285 l 331 0 l 519 0 l 411 1131 l 113 1131 z m 260 936 l 297 438 l 222 438 z m 232 1203 l 356 1203 l 249 1367 l 31 1367 z "},"Ā":{"ha":519,"x_min":0,"x_max":0,"o":"m 0 0 l 190 0 l 211 285 l 308 285 l 331 0 l 519 0 l 411 1131 l 113 1131 z m 260 936 l 297 438 l 222 438 z m 17 1307 l 17 1203 l 503 1203 l 503 1307 z "},"Ą":{"ha":519,"x_min":0,"x_max":0,"o":"m 478 -110 b 408 -125 460 -117 436 -125 b 364 -86 379 -125 364 -112 b 419 0 364 -60 388 -32 l 519 0 l 411 1131 l 113 1131 l 0 0 l 190 0 l 211 285 l 308 285 l 331 0 b 275 -103 297 -32 275 -60 b 397 -199 275 -158 319 -199 b 503 -171 447 -199 476 -182 z m 260 936 l 297 438 l 222 438 z "},"Å":{"ha":519,"x_min":0,"x_max":0,"o":"m 0 0 l 190 0 l 211 285 l 308 285 l 331 0 l 519 0 l 411 1131 l 113 1131 z m 260 936 l 297 438 l 222 438 z m 261 1458 b 133 1331 189 1458 133 1403 b 261 1203 133 1258 189 1203 b 390 1331 332 1203 390 1258 b 261 1458 390 1403 333 1458 z m 260 1379 b 311 1329 288 1379 311 1356 b 260 1278 311 1301 288 1278 b 210 1329 233 1278 210 1300 b 260 1379 210 1357 233 1379 z "},"Ã":{"ha":519,"x_min":0,"x_max":0,"o":"m 0 0 l 190 0 l 211 285 l 308 285 l 331 0 l 519 0 l 411 1131 l 113 1131 z m 260 936 l 297 438 l 222 438 z m 351 1333 b 286 1351 331 1333 308 1342 l 249 1365 b 157 1385 221 1375 192 1385 b 1 1267 92 1385 46 1343 l 97 1203 b 172 1264 115 1238 139 1264 b 238 1246 193 1264 217 1256 l 282 1228 b 372 1207 314 1215 349 1207 b 517 1318 428 1207 479 1240 l 418 1389 b 351 1333 406 1351 383 1333 z "},"B":{"ha":529,"x_min":0,"x_max":0,"o":"m 501 410 b 392 586 501 522 469 574 b 501 764 469 601 501 649 l 501 950 b 333 1131 501 1082 449 1131 l 42 1131 l 42 0 l 333 0 b 501 181 449 0 501 49 z m 303 181 b 272 144 303 157 288 144 l 239 144 l 239 511 l 271 511 b 303 476 286 511 303 499 z m 303 693 b 271 658 303 671 286 658 l 239 658 l 239 986 l 272 986 b 303 950 288 986 303 974 z "},"C":{"ha":514,"x_min":0,"x_max":0,"o":"m 296 168 b 264 133 296 146 279 133 b 232 168 249 133 232 146 l 232 965 b 265 1001 232 989 250 1001 b 296 965 281 1001 296 989 l 296 764 l 486 764 l 486 965 b 318 1146 486 1097 435 1146 l 190 1146 b 35 965 79 1146 35 1100 l 35 168 b 201 -12 35 39 86 -12 l 331 -12 b 486 168 442 -12 486 33 l 486 410 l 296 410 z "},"Ć":{"ha":514,"x_min":0,"x_max":0,"o":"m 296 168 b 264 133 296 146 279 133 b 232 168 249 133 232 146 l 232 965 b 265 1001 232 989 250 1001 b 296 965 281 1001 296 989 l 296 764 l 486 764 l 486 965 b 318 1146 486 1097 435 1146 l 190 1146 b 35 965 79 1146 35 1100 l 35 168 b 201 -12 35 39 86 -12 l 331 -12 b 486 168 442 -12 486 33 l 486 410 l 296 410 z m 279 1367 l 172 1203 l 296 1203 l 497 1367 z "},"Č":{"ha":514,"x_min":0,"x_max":0,"o":"m 296 168 b 264 133 296 146 279 133 b 232 168 249 133 232 146 l 232 965 b 265 1001 232 989 250 1001 b 296 965 281 1001 296 989 l 296 764 l 486 764 l 486 965 b 318 1146 486 1097 435 1146 l 190 1146 b 35 965 79 1146 35 1100 l 35 168 b 201 -12 35 39 86 -12 l 331 -12 b 486 168 442 -12 486 33 l 486 410 l 296 410 z m 190 1375 l 18 1375 l 176 1203 l 347 1203 l 494 1375 l 329 1375 l 261 1294 z "},"Ç":{"ha":514,"x_min":0,"x_max":0,"o":"m 238 -110 b 290 -150 269 -110 290 -124 b 256 -186 290 -174 279 -186 b 222 -161 238 -186 229 -176 l 132 -161 b 253 -257 150 -226 199 -257 b 382 -143 326 -257 382 -203 b 294 -62 382 -99 350 -67 l 294 -12 l 331 -12 b 486 168 442 -12 486 33 l 486 410 l 296 410 l 296 168 b 264 133 296 146 279 133 b 232 168 249 133 232 146 l 232 965 b 265 1001 232 989 250 1001 b 296 965 281 1001 296 989 l 296 764 l 486 764 l 486 965 b 318 1146 486 1097 435 1146 l 190 1146 b 35 965 79 1146 35 1100 l 35 168 b 201 -12 35 39 86 -12 l 222 -12 l 222 -110 z "},"Ĉ":{"ha":514,"x_min":0,"x_max":0,"o":"m 296 168 b 264 133 296 146 279 133 b 232 168 249 133 232 146 l 232 965 b 265 1001 232 989 250 1001 b 296 965 281 1001 296 989 l 296 764 l 486 764 l 486 965 b 318 1146 486 1097 435 1146 l 190 1146 b 35 965 79 1146 35 1100 l 35 168 b 201 -12 35 39 86 -12 l 331 -12 b 486 168 442 -12 486 33 l 486 410 l 296 410 z m 329 1203 l 494 1203 l 347 1375 l 176 1375 l 18 1203 l 190 1203 l 261 1282 z "},"Ċ":{"ha":514,"x_min":0,"x_max":0,"o":"m 296 168 b 264 133 296 146 279 133 b 232 168 249 133 232 146 l 232 965 b 265 1001 232 989 250 1001 b 296 965 281 1001 296 989 l 296 764 l 486 764 l 486 965 b 318 1146 486 1097 435 1146 l 190 1146 b 35 965 79 1146 35 1100 l 35 168 b 201 -12 35 39 86 -12 l 331 -12 b 486 168 442 -12 486 33 l 486 410 l 296 410 z m 179 1361 l 179 1203 l 335 1203 l 335 1361 z "},"D":{"ha":536,"x_min":0,"x_max":0,"o":"m 501 950 b 333 1131 501 1082 449 1131 l 42 1131 l 42 0 l 344 0 b 501 181 456 0 501 46 z m 303 181 b 271 146 303 158 286 146 l 239 146 l 239 986 l 272 986 b 303 950 288 986 303 974 z "},"Ď":{"ha":536,"x_min":0,"x_max":0,"o":"m 501 950 b 333 1131 501 1082 449 1131 l 42 1131 l 42 0 l 344 0 b 501 181 456 0 501 46 z m 303 181 b 271 146 303 158 286 146 l 239 146 l 239 986 l 272 986 b 303 950 288 986 303 974 z m 199 1375 l 26 1375 l 185 1203 l 356 1203 l 503 1375 l 338 1375 l 269 1294 z "},"Đ":{"ha":536,"x_min":0,"x_max":0,"o":"m 7 503 l 42 503 l 42 0 l 344 0 b 501 181 456 0 501 46 l 501 950 b 333 1131 501 1082 449 1131 l 42 1131 l 42 628 l 7 628 z m 303 181 b 271 146 303 158 286 146 l 239 146 l 239 503 l 271 503 l 271 628 l 239 628 l 239 986 l 272 986 b 303 950 288 986 303 974 z "},"Δ":{"ha":513,"x_min":0,"x_max":0,"o":"m 0 0 l 513 0 l 404 1131 l 113 1131 z m 257 839 l 300 153 l 214 153 z "},"∆":{"ha":513,"x_min":0,"x_max":0,"o":"m 0 0 l 513 0 l 404 1131 l 113 1131 z m 257 839 l 300 153 l 214 153 z "},"E":{"ha":408,"x_min":0,"x_max":0,"o":"m 388 153 l 239 153 l 239 499 l 374 499 l 374 651 l 239 651 l 239 978 l 388 978 l 388 1131 l 42 1131 l 42 0 l 388 0 z "},"É":{"ha":408,"x_min":0,"x_max":0,"o":"m 388 153 l 239 153 l 239 499 l 374 499 l 374 651 l 239 651 l 239 978 l 388 978 l 388 1131 l 42 1131 l 42 0 l 388 0 z m 231 1367 l 124 1203 l 247 1203 l 449 1367 z "},"Ě":{"ha":408,"x_min":0,"x_max":0,"o":"m 388 153 l 239 153 l 239 499 l 374 499 l 374 651 l 239 651 l 239 978 l 388 978 l 388 1131 l 42 1131 l 42 0 l 388 0 z m 142 1375 l -31 1375 l 128 1203 l 299 1203 l 446 1375 l 281 1375 l 213 1294 z "},"Ê":{"ha":408,"x_min":0,"x_max":0,"o":"m 388 153 l 239 153 l 239 499 l 374 499 l 374 651 l 239 651 l 239 978 l 388 978 l 388 1131 l 42 1131 l 42 0 l 388 0 z m 281 1203 l 446 1203 l 299 1375 l 128 1375 l -31 1203 l 142 1203 l 213 1282 z "},"Ë":{"ha":408,"x_min":0,"x_max":0,"o":"m 388 153 l 239 153 l 239 499 l 374 499 l 374 651 l 239 651 l 239 978 l 388 978 l 388 1131 l 42 1131 l 42 0 l 388 0 z m 4 1361 l 4 1203 l 161 1203 l 161 1361 z m 269 1361 l 269 1203 l 429 1203 l 429 1361 z "},"Ė":{"ha":408,"x_min":0,"x_max":0,"o":"m 388 153 l 239 153 l 239 499 l 374 499 l 374 651 l 239 651 l 239 978 l 388 978 l 388 1131 l 42 1131 l 42 0 l 388 0 z m 131 1361 l 131 1203 l 286 1203 l 286 1361 z "},"È":{"ha":408,"x_min":0,"x_max":0,"o":"m 388 153 l 239 153 l 239 499 l 374 499 l 374 651 l 239 651 l 239 978 l 388 978 l 388 1131 l 42 1131 l 42 0 l 388 0 z m 193 1203 l 317 1203 l 210 1367 l -8 1367 z "},"Ē":{"ha":408,"x_min":0,"x_max":0,"o":"m 388 153 l 239 153 l 239 499 l 374 499 l 374 651 l 239 651 l 239 978 l 388 978 l 388 1131 l 42 1131 l 42 0 l 388 0 z m -35 1307 l -35 1203 l 451 1203 l 451 1307 z "},"Ŋ":{"ha":592,"x_min":0,"x_max":0,"o":"m 338 0 l 367 0 l 367 -25 b 311 -75 367 -68 328 -75 l 311 -207 b 401 -215 343 -214 369 -215 b 550 -21 500 -215 550 -156 l 550 1131 l 367 1131 l 367 524 l 246 1131 l 42 1131 l 42 0 l 219 0 l 219 604 z "},"Ę":{"ha":408,"x_min":0,"x_max":0,"o":"m 363 -106 b 293 -121 344 -112 321 -121 b 249 -82 264 -121 249 -108 b 300 0 249 -56 268 -32 l 388 0 l 388 153 l 239 153 l 239 499 l 374 499 l 374 651 l 239 651 l 239 978 l 388 978 l 388 1131 l 42 1131 l 42 0 l 211 0 b 160 -99 179 -29 160 -58 b 282 -194 160 -154 204 -194 b 388 -167 332 -194 361 -178 z "},"Ð":{"ha":536,"x_min":0,"x_max":0,"o":"m 7 503 l 42 503 l 42 0 l 344 0 b 501 181 456 0 501 46 l 501 950 b 333 1131 501 1082 449 1131 l 42 1131 l 42 628 l 7 628 z m 303 181 b 271 146 303 158 286 146 l 239 146 l 239 503 l 271 503 l 271 628 l 239 628 l 239 986 l 272 986 b 303 950 288 986 303 974 z "},"€":{"ha":514,"x_min":0,"x_max":0,"o":"m 0 621 l 35 621 l 35 549 l 0 549 l 0 479 l 35 479 l 35 168 b 201 -12 35 39 86 -12 l 331 -12 b 486 168 442 -12 486 33 l 486 410 l 296 410 l 296 168 b 264 133 296 146 279 133 b 232 168 249 133 232 146 l 232 479 l 482 479 l 482 549 l 232 549 l 232 621 l 482 621 l 482 690 l 232 690 l 232 965 b 265 1001 232 989 250 1001 b 296 965 281 1001 296 989 l 296 764 l 486 764 l 486 965 b 318 1146 486 1097 435 1146 l 190 1146 b 35 965 79 1146 35 1100 l 35 690 l 0 690 z "},"F":{"ha":401,"x_min":0,"x_max":0,"o":"m 239 499 l 374 499 l 374 651 l 239 651 l 239 978 l 388 978 l 388 1131 l 42 1131 l 42 0 l 239 0 z "},"G":{"ha":522,"x_min":0,"x_max":0,"o":"m 494 558 l 261 558 l 261 404 l 296 404 l 296 168 b 264 133 296 146 279 133 b 232 168 249 133 232 146 l 232 965 b 265 1001 232 989 250 1001 b 296 965 281 1001 296 989 l 296 764 l 486 764 l 486 965 b 318 1146 486 1097 435 1146 l 190 1146 b 35 965 79 1146 35 1100 l 35 168 b 201 -12 35 39 86 -12 l 338 -12 b 494 168 449 -12 494 33 z "},"Ğ":{"ha":522,"x_min":0,"x_max":0,"o":"m 494 558 l 261 558 l 261 404 l 296 404 l 296 168 b 264 133 296 146 279 133 b 232 168 249 133 232 146 l 232 965 b 265 1001 232 989 250 1001 b 296 965 281 1001 296 989 l 296 764 l 486 764 l 486 965 b 318 1146 486 1097 435 1146 l 190 1146 b 35 965 79 1146 35 1100 l 35 168 b 201 -12 35 39 86 -12 l 338 -12 b 494 168 449 -12 494 33 z m 88 1388 b 260 1203 97 1265 158 1203 b 433 1388 361 1203 424 1265 l 331 1388 b 260 1303 324 1339 310 1303 b 192 1388 210 1303 197 1339 z "},"Ĝ":{"ha":522,"x_min":0,"x_max":0,"o":"m 494 558 l 261 558 l 261 404 l 296 404 l 296 168 b 264 133 296 146 279 133 b 232 168 249 133 232 146 l 232 965 b 265 1001 232 989 250 1001 b 296 965 281 1001 296 989 l 296 764 l 486 764 l 486 965 b 318 1146 486 1097 435 1146 l 190 1146 b 35 965 79 1146 35 1100 l 35 168 b 201 -12 35 39 86 -12 l 338 -12 b 494 168 449 -12 494 33 z m 333 1203 l 499 1203 l 351 1375 l 181 1375 l 22 1203 l 194 1203 l 265 1282 z "},"Ģ":{"ha":522,"x_min":0,"x_max":0,"o":"m 494 558 l 261 558 l 261 404 l 296 404 l 296 168 b 264 133 296 146 279 133 b 232 168 249 133 232 146 l 232 965 b 265 1001 232 989 250 1001 b 296 965 281 1001 296 989 l 296 764 l 486 764 l 486 965 b 318 1146 486 1097 435 1146 l 190 1146 b 35 965 79 1146 35 1100 l 35 168 b 201 -12 35 39 86 -12 l 338 -12 b 494 168 449 -12 494 33 z m 351 -97 l 169 -97 l 169 -265 l 246 -265 l 197 -460 l 351 -265 z "},"Ġ":{"ha":522,"x_min":0,"x_max":0,"o":"m 494 558 l 261 558 l 261 404 l 296 404 l 296 168 b 264 133 296 146 279 133 b 232 168 249 133 232 146 l 232 965 b 265 1001 232 989 250 1001 b 296 965 281 1001 296 989 l 296 764 l 486 764 l 486 965 b 318 1146 486 1097 435 1146 l 190 1146 b 35 965 79 1146 35 1100 l 35 168 b 201 -12 35 39 86 -12 l 338 -12 b 494 168 449 -12 494 33 z m 183 1361 l 183 1203 l 339 1203 l 339 1361 z "},"H":{"ha":543,"x_min":0,"x_max":0,"o":"m 303 0 l 501 0 l 501 1131 l 303 1131 l 303 651 l 239 651 l 239 1131 l 42 1131 l 42 0 l 239 0 l 239 499 l 303 499 z "},"Ħ":{"ha":543,"x_min":0,"x_max":0,"o":"m 303 0 l 501 0 l 501 851 l 536 851 l 536 956 l 501 956 l 501 1131 l 303 1131 l 303 956 l 239 956 l 239 1131 l 42 1131 l 42 956 l 7 956 l 7 851 l 42 851 l 42 0 l 239 0 l 239 499 l 303 499 z m 239 651 l 239 851 l 303 851 l 303 651 z "},"Ĥ":{"ha":543,"x_min":0,"x_max":0,"o":"m 303 0 l 501 0 l 501 1131 l 303 1131 l 303 651 l 239 651 l 239 1131 l 42 1131 l 42 0 l 239 0 l 239 499 l 303 499 z m 344 1203 l 510 1203 l 363 1375 l 192 1375 l 33 1203 l 206 1203 l 276 1282 z "},"I":{"ha":281,"x_min":0,"x_max":0,"o":"m 42 0 l 239 0 l 239 1131 l 42 1131 z "},"Í":{"ha":281,"x_min":0,"x_max":0,"o":"m 42 0 l 239 0 l 239 1131 l 42 1131 z m 149 1367 l 42 1203 l 165 1203 l 367 1367 z "},"Î":{"ha":281,"x_min":0,"x_max":0,"o":"m 42 0 l 239 0 l 239 1131 l 42 1131 z m 214 1203 l 379 1203 l 232 1375 l 61 1375 l -97 1203 l 75 1203 l 146 1282 z "},"Ï":{"ha":281,"x_min":0,"x_max":0,"o":"m 42 0 l 239 0 l 239 1131 l 42 1131 z m -72 1361 l -72 1203 l 85 1203 l 85 1361 z m 193 1361 l 193 1203 l 353 1203 l 353 1361 z "},"İ":{"ha":281,"x_min":0,"x_max":0,"o":"m 42 0 l 239 0 l 239 1131 l 42 1131 z m 63 1361 l 63 1203 l 218 1203 l 218 1361 z "},"Ì":{"ha":281,"x_min":0,"x_max":0,"o":"m 42 0 l 239 0 l 239 1131 l 42 1131 z m 122 1203 l 246 1203 l 139 1367 l -79 1367 z "},"Ī":{"ha":281,"x_min":0,"x_max":0,"o":"m 42 0 l 239 0 l 239 1131 l 42 1131 z m -103 1307 l -103 1203 l 383 1203 l 383 1307 z "},"Į":{"ha":281,"x_min":0,"x_max":0,"o":"m 42 0 l 94 0 b 43 -99 63 -29 43 -58 b 165 -194 43 -154 88 -194 b 271 -167 215 -194 244 -178 l 246 -106 b 176 -121 228 -112 204 -121 b 132 -82 147 -121 132 -108 b 183 0 132 -56 151 -32 l 239 0 l 239 1131 l 42 1131 z "},"Ĩ":{"ha":281,"x_min":0,"x_max":0,"o":"m 42 0 l 239 0 l 239 1131 l 42 1131 z m 233 1333 b 168 1351 213 1333 190 1342 l 131 1365 b 39 1385 103 1375 74 1385 b -117 1267 -26 1385 -72 1343 l -21 1203 b 54 1264 -3 1238 21 1264 b 119 1246 75 1264 99 1256 l 164 1228 b 254 1207 196 1215 231 1207 b 399 1318 310 1207 361 1240 l 300 1389 b 233 1333 288 1351 265 1333 z "},"J":{"ha":303,"x_min":0,"x_max":0,"o":"m 69 182 b 14 132 69 139 31 132 l 14 0 b 111 -8 46 -7 79 -8 b 268 186 210 -8 268 51 l 268 1131 l 69 1131 z "},"Ĵ":{"ha":303,"x_min":0,"x_max":0,"o":"m 69 182 b 14 132 69 139 31 132 l 14 0 b 111 -8 46 -7 79 -8 b 268 186 210 -8 268 51 l 268 1131 l 69 1131 z m 225 1203 l 390 1203 l 243 1375 l 72 1375 l -86 1203 l 86 1203 l 157 1282 z "},"K":{"ha":568,"x_min":0,"x_max":0,"o":"m 518 1131 l 325 1131 l 239 646 l 239 1131 l 42 1131 l 42 0 l 239 0 l 239 533 l 358 0 l 561 0 l 415 585 z "},"Ķ":{"ha":568,"x_min":0,"x_max":0,"o":"m 518 1131 l 325 1131 l 239 646 l 239 1131 l 42 1131 l 42 0 l 239 0 l 239 533 l 358 0 l 561 0 l 415 585 z m 378 -97 l 196 -97 l 196 -265 l 272 -265 l 224 -460 l 378 -265 z "},"L":{"ha":396,"x_min":0,"x_max":0,"o":"m 42 0 l 382 0 l 382 153 l 239 153 l 239 1131 l 42 1131 z "},"Ĺ":{"ha":403,"x_min":0,"x_max":0,"o":"m 42 0 l 382 0 l 382 153 l 239 153 l 239 1131 l 42 1131 z m 171 1367 l 64 1203 l 188 1203 l 389 1367 z "},"Ľ":{"ha":514,"x_min":0,"x_max":0,"o":"m 42 0 l 382 0 l 382 153 l 239 153 l 239 1131 l 42 1131 z m 500 1131 l 318 1131 l 318 963 l 394 963 l 346 768 l 500 963 z "},"Ļ":{"ha":396,"x_min":0,"x_max":0,"o":"m 42 0 l 382 0 l 382 153 l 239 153 l 239 1131 l 42 1131 z m 292 -97 l 110 -97 l 110 -265 l 186 -265 l 138 -460 l 292 -265 z "},"Ł":{"ha":396,"x_min":0,"x_max":0,"o":"m 0 353 l 42 372 l 42 0 l 382 0 l 382 153 l 239 153 l 239 458 l 354 510 l 354 635 l 239 583 l 239 1131 l 42 1131 l 42 497 l 0 478 z "},"M":{"ha":721,"x_min":0,"x_max":0,"o":"m 497 664 l 497 0 l 679 0 l 679 1131 l 451 1131 l 360 582 l 269 1131 l 42 1131 l 42 0 l 224 0 l 224 664 l 318 0 l 404 0 z "},"N":{"ha":592,"x_min":0,"x_max":0,"o":"m 338 0 l 550 0 l 550 1131 l 367 1131 l 367 524 l 246 1131 l 42 1131 l 42 0 l 219 0 l 219 604 z "},"Ń":{"ha":592,"x_min":0,"x_max":0,"o":"m 338 0 l 550 0 l 550 1131 l 367 1131 l 367 524 l 246 1131 l 42 1131 l 42 0 l 219 0 l 219 604 z m 322 1367 l 215 1203 l 339 1203 l 540 1367 z "},"Ň":{"ha":592,"x_min":0,"x_max":0,"o":"m 338 0 l 550 0 l 550 1131 l 367 1131 l 367 524 l 246 1131 l 42 1131 l 42 0 l 219 0 l 219 604 z m 229 1375 l 57 1375 l 215 1203 l 386 1203 l 533 1375 l 368 1375 l 300 1294 z "},"Ņ":{"ha":592,"x_min":0,"x_max":0,"o":"m 338 0 l 550 0 l 550 1131 l 367 1131 l 367 524 l 246 1131 l 42 1131 l 42 0 l 219 0 l 219 604 z m 386 -97 l 204 -97 l 204 -265 l 281 -265 l 232 -460 l 386 -265 z "},"Ñ":{"ha":592,"x_min":0,"x_max":0,"o":"m 338 0 l 550 0 l 550 1131 l 367 1131 l 367 524 l 246 1131 l 42 1131 l 42 0 l 219 0 l 219 604 z m 388 1333 b 322 1351 367 1333 344 1342 l 285 1365 b 193 1385 257 1375 228 1385 b 38 1267 128 1385 82 1343 l 133 1203 b 208 1264 151 1238 175 1264 b 274 1246 229 1264 253 1256 l 318 1228 b 408 1207 350 1215 385 1207 b 553 1318 464 1207 515 1240 l 454 1389 b 388 1333 442 1351 419 1333 z "},"O":{"ha":529,"x_min":0,"x_max":0,"o":"m 494 965 b 326 1146 494 1097 442 1146 l 190 1146 b 35 965 79 1146 35 1100 l 35 168 b 201 -12 35 39 86 -12 l 338 -12 b 494 168 449 -12 494 33 z m 296 168 b 264 133 296 146 279 133 b 232 168 249 133 232 146 l 232 965 b 265 1001 232 989 250 1001 b 296 965 281 1001 296 989 z "},"Œ":{"ha":663,"x_min":0,"x_max":0,"o":"m 642 153 l 494 153 l 494 499 l 628 499 l 628 651 l 494 651 l 494 978 l 642 978 l 642 1131 l 190 1131 b 35 950 79 1131 35 1085 l 35 181 b 201 0 35 51 86 0 l 642 0 z m 296 181 b 264 146 296 158 279 146 b 232 181 249 146 232 158 l 232 950 b 265 986 232 974 250 986 b 296 950 281 986 296 974 z "},"Ó":{"ha":529,"x_min":0,"x_max":0,"o":"m 494 965 b 326 1146 494 1097 442 1146 l 190 1146 b 35 965 79 1146 35 1100 l 35 168 b 201 -12 35 39 86 -12 l 338 -12 b 494 168 449 -12 494 33 z m 296 168 b 264 133 296 146 279 133 b 232 168 249 133 232 146 l 232 965 b 265 1001 232 989 250 1001 b 296 965 281 1001 296 989 z m 293 1367 l 186 1203 l 310 1203 l 511 1367 z "},"Ô":{"ha":529,"x_min":0,"x_max":0,"o":"m 494 965 b 326 1146 494 1097 442 1146 l 190 1146 b 35 965 79 1146 35 1100 l 35 168 b 201 -12 35 39 86 -12 l 338 -12 b 494 168 449 -12 494 33 z m 296 168 b 264 133 296 146 279 133 b 232 168 249 133 232 146 l 232 965 b 265 1001 232 989 250 1001 b 296 965 281 1001 296 989 z m 338 1203 l 503 1203 l 356 1375 l 185 1375 l 26 1203 l 199 1203 l 269 1282 z "},"Ö":{"ha":529,"x_min":0,"x_max":0,"o":"m 494 965 b 326 1146 494 1097 442 1146 l 190 1146 b 35 965 79 1146 35 1100 l 35 168 b 201 -12 35 39 86 -12 l 338 -12 b 494 168 449 -12 494 33 z m 296 168 b 264 133 296 146 279 133 b 232 168 249 133 232 146 l 232 965 b 265 1001 232 989 250 1001 b 296 965 281 1001 296 989 z m 51 1361 l 51 1203 l 208 1203 l 208 1361 z m 317 1361 l 317 1203 l 476 1203 l 476 1361 z "},"Ò":{"ha":529,"x_min":0,"x_max":0,"o":"m 494 965 b 326 1146 494 1097 442 1146 l 190 1146 b 35 965 79 1146 35 1100 l 35 168 b 201 -12 35 39 86 -12 l 338 -12 b 494 168 449 -12 494 33 z m 296 168 b 264 133 296 146 279 133 b 232 168 249 133 232 146 l 232 965 b 265 1001 232 989 250 1001 b 296 965 281 1001 296 989 z m 261 1203 l 385 1203 l 278 1367 l 60 1367 z "},"Ő":{"ha":529,"x_min":0,"x_max":0,"o":"m 494 965 b 326 1146 494 1097 442 1146 l 190 1146 b 35 965 79 1146 35 1100 l 35 168 b 201 -12 35 39 86 -12 l 338 -12 b 494 168 449 -12 494 33 z m 296 168 b 264 133 296 146 279 133 b 232 168 249 133 232 146 l 232 965 b 265 1001 232 989 250 1001 b 296 965 281 1001 296 989 z m 161 1392 l 89 1204 l 179 1204 l 326 1392 z m 371 1392 l 299 1204 l 389 1204 l 536 1392 z "},"Ō":{"ha":529,"x_min":0,"x_max":0,"o":"m 494 965 b 326 1146 494 1097 442 1146 l 190 1146 b 35 965 79 1146 35 1100 l 35 168 b 201 -12 35 39 86 -12 l 338 -12 b 494 168 449 -12 494 33 z m 296 168 b 264 133 296 146 279 133 b 232 168 249 133 232 146 l 232 965 b 265 1001 232 989 250 1001 b 296 965 281 1001 296 989 z m 21 1307 l 21 1203 l 507 1203 l 507 1307 z "},"Ø":{"ha":529,"x_min":0,"x_max":0,"o":"m 488 1188 l 454 1103 b 326 1146 426 1135 383 1146 l 190 1146 b 35 965 79 1146 35 1100 l 35 168 b 47 75 35 131 39 100 l 3 -39 l 43 -58 l 76 28 b 201 -12 103 1 144 -12 l 338 -12 b 494 168 449 -12 494 33 l 494 965 b 482 1056 494 1001 490 1032 l 526 1169 z m 232 965 b 265 1001 232 989 250 1001 b 296 965 281 1001 296 989 l 296 703 l 232 540 z m 296 168 b 264 133 296 146 279 133 b 232 168 249 133 232 146 l 232 421 l 296 583 z "},"Õ":{"ha":529,"x_min":0,"x_max":0,"o":"m 494 965 b 326 1146 494 1097 442 1146 l 190 1146 b 35 965 79 1146 35 1100 l 35 168 b 201 -12 35 39 86 -12 l 338 -12 b 494 168 449 -12 494 33 z m 296 168 b 264 133 296 146 279 133 b 232 168 249 133 232 146 l 232 965 b 265 1001 232 989 250 1001 b 296 965 281 1001 296 989 z m 357 1333 b 292 1351 336 1333 314 1342 l 254 1365 b 163 1385 226 1375 197 1385 b 7 1267 97 1385 51 1343 l 103 1203 b 178 1264 121 1238 144 1264 b 243 1246 199 1264 222 1256 l 288 1228 b 378 1207 319 1215 354 1207 b 522 1318 433 1207 485 1240 l 424 1389 b 357 1333 411 1351 389 1333 z "},"P":{"ha":529,"x_min":0,"x_max":0,"o":"m 501 950 b 333 1131 501 1082 449 1131 l 42 1131 l 42 0 l 239 0 l 239 419 l 301 419 b 501 589 461 419 501 460 z m 303 601 b 271 567 303 579 286 567 l 239 567 l 239 986 l 272 986 b 303 950 288 986 303 974 z "},"Q":{"ha":529,"x_min":0,"x_max":0,"o":"m 494 965 b 326 1146 494 1097 442 1146 l 190 1146 b 35 965 79 1146 35 1100 l 35 168 b 201 -12 35 39 86 -12 l 208 -12 l 208 -90 l 331 -90 l 331 -12 l 338 -12 b 494 168 449 -12 494 33 z m 296 168 b 264 133 296 146 279 133 b 232 168 249 133 232 146 l 232 965 b 265 1001 232 989 250 1001 b 296 965 281 1001 296 989 z "},"R":{"ha":536,"x_min":0,"x_max":0,"o":"m 501 346 b 392 522 501 458 469 510 b 501 700 469 538 501 585 l 501 950 b 333 1131 501 1082 449 1131 l 42 1131 l 42 0 l 239 0 l 239 447 l 271 447 b 303 413 286 447 303 435 l 303 0 l 501 0 z m 303 629 b 271 594 303 607 286 594 l 239 594 l 239 986 l 272 986 b 303 950 288 986 303 974 z "},"Ŕ":{"ha":536,"x_min":0,"x_max":0,"o":"m 501 346 b 392 522 501 458 469 510 b 501 700 469 538 501 585 l 501 950 b 333 1131 501 1082 449 1131 l 42 1131 l 42 0 l 239 0 l 239 447 l 271 447 b 303 413 286 447 303 435 l 303 0 l 501 0 z m 303 629 b 271 594 303 607 286 594 l 239 594 l 239 986 l 272 986 b 303 950 288 986 303 974 z m 268 1367 l 161 1203 l 285 1203 l 486 1367 z "},"Ř":{"ha":536,"x_min":0,"x_max":0,"o":"m 501 346 b 392 522 501 458 469 510 b 501 700 469 538 501 585 l 501 950 b 333 1131 501 1082 449 1131 l 42 1131 l 42 0 l 239 0 l 239 447 l 271 447 b 303 413 286 447 303 435 l 303 0 l 501 0 z m 303 629 b 271 594 303 607 286 594 l 239 594 l 239 986 l 272 986 b 303 950 288 986 303 974 z m 193 1375 l 21 1375 l 179 1203 l 350 1203 l 497 1375 l 332 1375 l 264 1294 z "},"Ŗ":{"ha":536,"x_min":0,"x_max":0,"o":"m 501 346 b 392 522 501 458 469 510 b 501 700 469 538 501 585 l 501 950 b 333 1131 501 1082 449 1131 l 42 1131 l 42 0 l 239 0 l 239 447 l 271 447 b 303 413 286 447 303 435 l 303 0 l 501 0 z m 303 629 b 271 594 303 607 286 594 l 239 594 l 239 986 l 272 986 b 303 950 288 986 303 974 z m 364 -97 l 182 -97 l 182 -265 l 258 -265 l 210 -460 l 364 -265 z "},"S":{"ha":506,"x_min":0,"x_max":0,"o":"m 286 167 b 254 132 286 144 272 132 b 224 167 233 132 224 143 l 224 404 l 35 404 l 35 168 b 194 -12 35 39 79 -12 l 321 -12 b 478 168 432 -12 478 35 l 478 403 b 224 788 478 613 224 660 l 224 968 b 256 1003 224 990 238 1003 b 286 968 272 1003 286 990 l 286 763 l 471 763 l 471 967 b 310 1146 471 1096 426 1146 l 185 1146 b 28 967 74 1146 28 1100 l 28 754 b 286 364 28 567 286 496 z "},"Ś":{"ha":506,"x_min":0,"x_max":0,"o":"m 286 167 b 254 132 286 144 272 132 b 224 167 233 132 224 143 l 224 404 l 35 404 l 35 168 b 194 -12 35 39 79 -12 l 321 -12 b 478 168 432 -12 478 35 l 478 403 b 224 788 478 613 224 660 l 224 968 b 256 1003 224 990 238 1003 b 286 968 272 1003 286 990 l 286 763 l 471 763 l 471 967 b 310 1146 471 1096 426 1146 l 185 1146 b 28 967 74 1146 28 1100 l 28 754 b 286 364 28 567 286 496 z m 276 1367 l 169 1203 l 293 1203 l 494 1367 z "},"Š":{"ha":506,"x_min":0,"x_max":0,"o":"m 286 167 b 254 132 286 144 272 132 b 224 167 233 132 224 143 l 224 404 l 35 404 l 35 168 b 194 -12 35 39 79 -12 l 321 -12 b 478 168 432 -12 478 35 l 478 403 b 224 788 478 613 224 660 l 224 968 b 256 1003 224 990 238 1003 b 286 968 272 1003 286 990 l 286 763 l 471 763 l 471 967 b 310 1146 471 1096 426 1146 l 185 1146 b 28 967 74 1146 28 1100 l 28 754 b 286 364 28 567 286 496 z m 186 1375 l 14 1375 l 172 1203 l 343 1203 l 490 1375 l 325 1375 l 257 1294 z "},"Ş":{"ha":506,"x_min":0,"x_max":0,"o":"m 233 -117 b 286 -157 265 -117 286 -131 b 251 -193 286 -181 275 -193 b 218 -168 233 -193 225 -183 l 128 -168 b 249 -264 146 -233 194 -264 b 378 -150 322 -264 378 -210 b 290 -69 378 -106 346 -74 l 290 -12 l 321 -12 b 478 168 432 -12 478 35 l 478 403 b 224 788 478 613 224 660 l 224 968 b 256 1003 224 990 238 1003 b 286 968 272 1003 286 990 l 286 763 l 471 763 l 471 967 b 310 1146 471 1096 426 1146 l 185 1146 b 28 967 74 1146 28 1100 l 28 754 b 286 364 28 567 286 496 l 286 167 b 254 132 286 144 272 132 b 224 167 233 132 224 143 l 224 404 l 35 404 l 35 168 b 194 -12 35 39 79 -12 l 218 -12 l 218 -117 z "},"Ŝ":{"ha":506,"x_min":0,"x_max":0,"o":"m 286 167 b 254 132 286 144 272 132 b 224 167 233 132 224 143 l 224 404 l 35 404 l 35 168 b 194 -12 35 39 79 -12 l 321 -12 b 478 168 432 -12 478 35 l 478 403 b 224 788 478 613 224 660 l 224 968 b 256 1003 224 990 238 1003 b 286 968 272 1003 286 990 l 286 763 l 471 763 l 471 967 b 310 1146 471 1096 426 1146 l 185 1146 b 28 967 74 1146 28 1100 l 28 754 b 286 364 28 567 286 496 z m 325 1203 l 490 1203 l 343 1375 l 172 1375 l 14 1203 l 186 1203 l 257 1282 z "},"Ș":{"ha":506,"x_min":0,"x_max":0,"o":"m 286 167 b 254 132 286 144 272 132 b 224 167 233 132 224 143 l 224 404 l 35 404 l 35 168 b 194 -12 35 39 79 -12 l 321 -12 b 478 168 432 -12 478 35 l 478 403 b 224 788 478 613 224 660 l 224 968 b 256 1003 224 990 238 1003 b 286 968 272 1003 286 990 l 286 763 l 471 763 l 471 967 b 310 1146 471 1096 426 1146 l 185 1146 b 28 967 74 1146 28 1100 l 28 754 b 286 364 28 567 286 496 z m 349 -97 l 167 -97 l 167 -265 l 243 -265 l 194 -460 l 349 -265 z "},"T":{"ha":443,"x_min":0,"x_max":0,"o":"m 122 0 l 321 0 l 321 978 l 429 978 l 429 1131 l 14 1131 l 14 978 l 122 978 z "},"Ŧ":{"ha":443,"x_min":0,"x_max":0,"o":"m 0 817 l 0 713 l 122 713 l 122 0 l 321 0 l 321 713 l 443 713 l 443 817 l 321 817 l 321 978 l 429 978 l 429 1131 l 14 1131 l 14 978 l 122 978 l 122 817 z "},"Ť":{"ha":443,"x_min":0,"x_max":0,"o":"m 122 0 l 321 0 l 321 978 l 429 978 l 429 1131 l 14 1131 l 14 978 l 122 978 z m 156 1375 l -17 1375 l 142 1203 l 313 1203 l 460 1375 l 294 1375 l 226 1294 z "},"Ţ":{"ha":443,"x_min":0,"x_max":0,"o":"m 122 0 l 321 0 l 321 978 l 429 978 l 429 1131 l 14 1131 l 14 978 l 122 978 z m 313 -97 l 131 -97 l 131 -265 l 207 -265 l 158 -460 l 313 -265 z "},"Þ":{"ha":529,"x_min":0,"x_max":0,"o":"m 501 738 b 333 918 501 869 449 918 l 239 918 l 239 1131 l 42 1131 l 42 0 l 239 0 l 239 207 l 301 207 b 501 376 461 207 501 247 z m 303 389 b 271 354 303 367 286 354 l 239 354 l 239 774 l 272 774 b 303 738 288 774 303 761 z "},"U":{"ha":529,"x_min":0,"x_max":0,"o":"m 296 168 b 264 133 296 146 279 133 b 232 168 249 133 232 146 l 232 1131 l 35 1131 l 35 168 b 201 -12 35 39 86 -12 l 338 -12 b 494 168 449 -12 494 33 l 494 1131 l 296 1131 z "},"Ú":{"ha":529,"x_min":0,"x_max":0,"o":"m 296 168 b 264 133 296 146 279 133 b 232 168 249 133 232 146 l 232 1131 l 35 1131 l 35 168 b 201 -12 35 39 86 -12 l 338 -12 b 494 168 449 -12 494 33 l 494 1131 l 296 1131 z m 279 1367 l 172 1203 l 296 1203 l 497 1367 z "},"Ŭ":{"ha":529,"x_min":0,"x_max":0,"o":"m 296 168 b 264 133 296 146 279 133 b 232 168 249 133 232 146 l 232 1131 l 35 1131 l 35 168 b 201 -12 35 39 86 -12 l 338 -12 b 494 168 449 -12 494 33 l 494 1131 l 296 1131 z m 92 1388 b 264 1203 101 1265 163 1203 b 438 1388 365 1203 428 1265 l 335 1388 b 264 1303 328 1339 314 1303 b 196 1388 214 1303 201 1339 z "},"Û":{"ha":529,"x_min":0,"x_max":0,"o":"m 296 168 b 264 133 296 146 279 133 b 232 168 249 133 232 146 l 232 1131 l 35 1131 l 35 168 b 201 -12 35 39 86 -12 l 338 -12 b 494 168 449 -12 494 33 l 494 1131 l 296 1131 z m 338 1203 l 503 1203 l 356 1375 l 185 1375 l 26 1203 l 199 1203 l 269 1282 z "},"Ü":{"ha":529,"x_min":0,"x_max":0,"o":"m 296 168 b 264 133 296 146 279 133 b 232 168 249 133 232 146 l 232 1131 l 35 1131 l 35 168 b 201 -12 35 39 86 -12 l 338 -12 b 494 168 449 -12 494 33 l 494 1131 l 296 1131 z m 51 1361 l 51 1203 l 208 1203 l 208 1361 z m 317 1361 l 317 1203 l 476 1203 l 476 1361 z "},"Ù":{"ha":529,"x_min":0,"x_max":0,"o":"m 296 168 b 264 133 296 146 279 133 b 232 168 249 133 232 146 l 232 1131 l 35 1131 l 35 168 b 201 -12 35 39 86 -12 l 338 -12 b 494 168 449 -12 494 33 l 494 1131 l 296 1131 z m 250 1203 l 374 1203 l 267 1367 l 49 1367 z "},"Ű":{"ha":529,"x_min":0,"x_max":0,"o":"m 296 168 b 264 133 296 146 279 133 b 232 168 249 133 232 146 l 232 1131 l 35 1131 l 35 168 b 201 -12 35 39 86 -12 l 338 -12 b 494 168 449 -12 494 33 l 494 1131 l 296 1131 z m 175 1392 l 103 1204 l 193 1204 l 340 1392 z m 385 1392 l 313 1204 l 403 1204 l 550 1392 z "},"Ū":{"ha":529,"x_min":0,"x_max":0,"o":"m 296 168 b 264 133 296 146 279 133 b 232 168 249 133 232 146 l 232 1131 l 35 1131 l 35 168 b 201 -12 35 39 86 -12 l 338 -12 b 494 168 449 -12 494 33 l 494 1131 l 296 1131 z m 21 1307 l 21 1203 l 507 1203 l 507 1307 z "},"Ų":{"ha":529,"x_min":0,"x_max":0,"o":"m 413 -106 b 343 -121 394 -112 371 -121 b 299 -82 314 -121 299 -108 b 339 -12 299 -61 313 -39 b 494 168 449 -11 494 33 l 494 1131 l 296 1131 l 296 168 b 264 133 296 146 279 133 b 232 168 249 133 232 146 l 232 1131 l 35 1131 l 35 168 b 201 -12 35 39 86 -12 l 249 -12 b 210 -99 225 -39 210 -64 b 332 -194 210 -154 254 -194 b 438 -167 382 -194 411 -178 z "},"Ů":{"ha":529,"x_min":0,"x_max":0,"o":"m 296 168 b 264 133 296 146 279 133 b 232 168 249 133 232 146 l 232 1131 l 35 1131 l 35 168 b 201 -12 35 39 86 -12 l 338 -12 b 494 168 449 -12 494 33 l 494 1131 l 296 1131 z m 264 1458 b 136 1331 192 1458 136 1403 b 264 1203 136 1258 192 1203 b 393 1331 335 1203 393 1258 b 264 1458 393 1403 336 1458 z m 263 1379 b 314 1329 290 1379 314 1356 b 263 1278 314 1301 290 1278 b 213 1329 236 1278 213 1300 b 263 1379 213 1357 236 1379 z "},"Ũ":{"ha":529,"x_min":0,"x_max":0,"o":"m 296 168 b 264 133 296 146 279 133 b 232 168 249 133 232 146 l 232 1131 l 35 1131 l 35 168 b 201 -12 35 39 86 -12 l 338 -12 b 494 168 449 -12 494 33 l 494 1131 l 296 1131 z m 357 1333 b 292 1351 336 1333 314 1342 l 254 1365 b 163 1385 226 1375 197 1385 b 7 1267 97 1385 51 1343 l 103 1203 b 178 1264 121 1238 144 1264 b 243 1246 199 1264 222 1256 l 288 1228 b 378 1207 319 1215 354 1207 b 522 1318 433 1207 485 1240 l 424 1389 b 357 1333 411 1351 389 1333 z "},"V":{"ha":513,"x_min":0,"x_max":0,"o":"m 113 0 l 404 0 l 513 1131 l 310 1131 l 257 292 l 204 1131 l 0 1131 z "},"W":{"ha":797,"x_min":0,"x_max":0,"o":"m 797 1131 l 607 1131 l 568 313 l 515 1131 l 282 1131 l 229 313 l 190 1131 l 0 1131 l 85 0 l 339 0 l 399 838 l 458 0 l 713 0 z "},"Ẃ":{"ha":797,"x_min":0,"x_max":0,"o":"m 797 1131 l 607 1131 l 568 313 l 515 1131 l 282 1131 l 229 313 l 190 1131 l 0 1131 l 85 0 l 339 0 l 399 838 l 458 0 l 713 0 z m 426 1367 l 319 1203 l 443 1203 l 644 1367 z "},"Ŵ":{"ha":797,"x_min":0,"x_max":0,"o":"m 797 1131 l 607 1131 l 568 313 l 515 1131 l 282 1131 l 229 313 l 190 1131 l 0 1131 l 85 0 l 339 0 l 399 838 l 458 0 l 713 0 z m 471 1203 l 636 1203 l 489 1375 l 318 1375 l 160 1203 l 332 1203 l 403 1282 z "},"Ẅ":{"ha":797,"x_min":0,"x_max":0,"o":"m 797 1131 l 607 1131 l 568 313 l 515 1131 l 282 1131 l 229 313 l 190 1131 l 0 1131 l 85 0 l 339 0 l 399 838 l 458 0 l 713 0 z m 185 1361 l 185 1203 l 342 1203 l 342 1361 z m 450 1361 l 450 1203 l 610 1203 l 610 1361 z "},"Ẁ":{"ha":797,"x_min":0,"x_max":0,"o":"m 797 1131 l 607 1131 l 568 313 l 515 1131 l 282 1131 l 229 313 l 190 1131 l 0 1131 l 85 0 l 339 0 l 399 838 l 458 0 l 713 0 z m 390 1203 l 514 1203 l 407 1367 l 189 1367 z "},"X":{"ha":544,"x_min":0,"x_max":0,"o":"m 522 1131 l 329 1131 l 272 715 l 215 1131 l 21 1131 l 104 585 l 7 0 l 210 0 l 272 453 l 335 0 l 538 0 l 440 585 z "},"Y":{"ha":496,"x_min":0,"x_max":0,"o":"m 496 1131 l 310 1131 l 249 622 l 188 1131 l 0 1131 l 150 333 l 150 0 l 347 0 l 347 332 z "},"Ý":{"ha":503,"x_min":0,"x_max":0,"o":"m 496 1131 l 310 1131 l 249 622 l 188 1131 l 0 1131 l 150 333 l 150 0 l 347 0 l 347 332 z m 285 1367 l 178 1203 l 301 1203 l 503 1367 z "},"Ŷ":{"ha":496,"x_min":0,"x_max":0,"o":"m 496 1131 l 310 1131 l 249 622 l 188 1131 l 0 1131 l 150 333 l 150 0 l 347 0 l 347 332 z m 321 1203 l 486 1203 l 339 1375 l 168 1375 l 10 1203 l 182 1203 l 253 1282 z "},"Ÿ":{"ha":496,"x_min":0,"x_max":0,"o":"m 496 1131 l 310 1131 l 249 622 l 188 1131 l 0 1131 l 150 333 l 150 0 l 347 0 l 347 332 z m 35 1361 l 35 1203 l 192 1203 l 192 1361 z m 300 1361 l 300 1203 l 460 1203 l 460 1361 z "},"Ỳ":{"ha":496,"x_min":0,"x_max":0,"o":"m 496 1131 l 310 1131 l 249 622 l 188 1131 l 0 1131 l 150 333 l 150 0 l 347 0 l 347 332 z m 235 1203 l 358 1203 l 251 1367 l 33 1367 z "},"Z":{"ha":422,"x_min":0,"x_max":0,"o":"m 21 0 l 401 0 l 401 139 l 213 139 l 401 976 l 401 1131 l 28 1131 l 28 992 l 210 992 l 21 156 z "},"Ź":{"ha":422,"x_min":0,"x_max":0,"o":"m 21 0 l 401 0 l 401 139 l 213 139 l 401 976 l 401 1131 l 28 1131 l 28 992 l 210 992 l 21 156 z m 233 1367 l 126 1203 l 250 1203 l 451 1367 z "},"Ž":{"ha":422,"x_min":0,"x_max":0,"o":"m 21 0 l 401 0 l 401 139 l 213 139 l 401 976 l 401 1131 l 28 1131 l 28 992 l 210 992 l 21 156 z m 144 1375 l -28 1375 l 131 1203 l 301 1203 l 449 1375 l 283 1375 l 215 1294 z "},"Ż":{"ha":422,"x_min":0,"x_max":0,"o":"m 21 0 l 401 0 l 401 139 l 213 139 l 401 976 l 401 1131 l 28 1131 l 28 992 l 210 992 l 21 156 z m 133 1361 l 133 1203 l 289 1203 l 289 1361 z "},"a":{"ha":486,"x_min":0,"x_max":0,"o":"m 451 0 l 451 728 b 301 907 451 861 411 907 l 196 907 b 36 728 81 907 36 857 l 36 601 l 211 601 l 211 743 b 239 778 211 765 224 778 b 268 743 254 778 268 765 l 268 549 b 28 368 139 531 28 517 l 28 157 b 163 -12 28 18 86 -12 b 271 29 194 -12 242 0 l 285 0 z m 211 385 b 268 421 211 408 233 419 l 268 161 b 239 125 268 138 254 125 b 211 161 224 125 211 138 z "},"á":{"ha":486,"x_min":0,"x_max":0,"o":"m 451 0 l 451 728 b 301 907 451 861 411 907 l 196 907 b 36 728 81 907 36 857 l 36 601 l 211 601 l 211 743 b 239 778 211 765 224 778 b 268 743 254 778 268 765 l 268 549 b 28 368 139 531 28 517 l 28 157 b 163 -12 28 18 86 -12 b 271 29 194 -12 242 0 l 285 0 z m 211 385 b 268 421 211 408 233 419 l 268 161 b 239 125 268 138 254 125 b 211 161 224 125 211 138 z m 257 1136 l 150 972 l 274 972 l 475 1136 z "},"ă":{"ha":486,"x_min":0,"x_max":0,"o":"m 451 0 l 451 728 b 301 907 451 861 411 907 l 196 907 b 36 728 81 907 36 857 l 36 601 l 211 601 l 211 743 b 239 778 211 765 224 778 b 268 743 254 778 268 765 l 268 549 b 28 368 139 531 28 517 l 28 157 b 163 -12 28 18 86 -12 b 271 29 194 -12 242 0 l 285 0 z m 211 385 b 268 421 211 408 233 419 l 268 161 b 239 125 268 138 254 125 b 211 161 224 125 211 138 z m 69 1157 b 242 972 79 1035 140 972 b 415 1157 343 972 406 1035 l 313 1157 b 242 1072 306 1108 292 1072 b 174 1157 192 1072 179 1108 z "},"â":{"ha":486,"x_min":0,"x_max":0,"o":"m 451 0 l 451 728 b 301 907 451 861 411 907 l 196 907 b 36 728 81 907 36 857 l 36 601 l 211 601 l 211 743 b 239 778 211 765 224 778 b 268 743 254 778 268 765 l 268 549 b 28 368 139 531 28 517 l 28 157 b 163 -12 28 18 86 -12 b 271 29 194 -12 242 0 l 285 0 z m 211 385 b 268 421 211 408 233 419 l 268 161 b 239 125 268 138 254 125 b 211 161 224 125 211 138 z m 315 972 l 481 972 l 333 1144 l 163 1144 l 4 972 l 176 972 l 247 1051 z "},"´":{"ha":417,"x_min":0,"x_max":0,"o":"m 200 1136 l 93 972 l 217 972 l 418 1136 z "},"ä":{"ha":486,"x_min":0,"x_max":0,"o":"m 451 0 l 451 728 b 301 907 451 861 411 907 l 196 907 b 36 728 81 907 36 857 l 36 601 l 211 601 l 211 743 b 239 778 211 765 224 778 b 268 743 254 778 268 765 l 268 549 b 28 368 139 531 28 517 l 28 157 b 163 -12 28 18 86 -12 b 271 29 194 -12 242 0 l 285 0 z m 211 385 b 268 421 211 408 233 419 l 268 161 b 239 125 268 138 254 125 b 211 161 224 125 211 138 z m 31 1131 l 31 972 l 188 972 l 188 1131 z m 296 1131 l 296 972 l 456 972 l 456 1131 z "},"æ":{"ha":719,"x_min":0,"x_max":0,"o":"m 508 161 b 479 125 508 138 494 125 b 451 161 464 125 451 138 l 451 414 l 685 414 l 685 728 b 517 907 685 857 632 907 l 426 907 b 363 872 400 907 381 904 b 301 907 346 904 325 907 l 196 907 b 36 728 81 907 36 857 l 36 601 l 211 601 l 211 743 b 239 778 211 765 224 778 b 268 743 254 778 268 765 l 268 549 b 28 368 139 531 28 517 l 28 157 b 163 -12 28 18 86 -12 b 299 67 196 -12 265 0 b 438 -4 325 13 371 -4 l 536 -4 b 685 176 646 -4 685 42 l 685 335 l 508 335 z m 211 385 b 268 432 211 408 233 426 l 268 161 b 239 125 268 138 254 125 b 211 161 224 125 211 138 z m 451 529 l 451 747 b 481 778 453 768 463 778 b 508 743 496 778 508 765 l 508 529 z "},"à":{"ha":486,"x_min":0,"x_max":0,"o":"m 451 0 l 451 728 b 301 907 451 861 411 907 l 196 907 b 36 728 81 907 36 857 l 36 601 l 211 601 l 211 743 b 239 778 211 765 224 778 b 268 743 254 778 268 765 l 268 549 b 28 368 139 531 28 517 l 28 157 b 163 -12 28 18 86 -12 b 271 29 194 -12 242 0 l 285 0 z m 211 385 b 268 421 211 408 233 419 l 268 161 b 239 125 268 138 254 125 b 211 161 224 125 211 138 z m 226 972 l 350 972 l 243 1136 l 25 1136 z "},"ā":{"ha":486,"x_min":0,"x_max":0,"o":"m 451 0 l 451 728 b 301 907 451 861 411 907 l 196 907 b 36 728 81 907 36 857 l 36 601 l 211 601 l 211 743 b 239 778 211 765 224 778 b 268 743 254 778 268 765 l 268 549 b 28 368 139 531 28 517 l 28 157 b 163 -12 28 18 86 -12 b 271 29 194 -12 242 0 l 285 0 z m 211 385 b 268 421 211 408 233 419 l 268 161 b 239 125 268 138 254 125 b 211 161 224 125 211 138 z m 0 1076 l 0 972 l 486 972 l 486 1076 z "},"&":{"ha":514,"x_min":0,"x_max":0,"o":"m 281 833 l 465 833 l 465 958 b 297 1139 465 1090 413 1139 l 203 1139 b 35 958 88 1139 35 1090 l 35 764 b 144 586 35 649 67 601 b 35 410 67 574 35 522 l 35 175 b 203 -6 35 43 88 -6 l 297 -6 b 465 175 413 -6 465 43 l 465 510 l 500 510 l 500 658 l 249 658 b 219 693 233 658 219 672 l 219 958 b 250 994 219 982 235 994 b 281 958 265 994 281 982 z m 219 476 b 251 511 219 499 236 511 l 281 511 l 281 175 b 250 139 281 151 265 139 b 219 175 235 139 219 151 z "},"ą":{"ha":486,"x_min":0,"x_max":0,"o":"m 438 -106 b 368 -121 419 -112 396 -121 b 324 -82 339 -121 324 -108 b 375 0 324 -56 343 -32 l 451 0 l 451 728 b 301 907 451 861 411 907 l 196 907 b 36 728 81 907 36 857 l 36 601 l 211 601 l 211 743 b 239 778 211 765 224 778 b 268 743 254 778 268 765 l 268 549 b 28 368 139 531 28 517 l 28 157 b 163 -12 28 18 86 -12 b 271 29 194 -12 242 0 l 286 0 b 235 -99 257 -29 235 -58 b 357 -194 235 -154 279 -194 b 463 -167 407 -194 436 -178 z m 211 385 b 268 421 211 408 233 419 l 268 161 b 239 125 268 138 254 125 b 211 161 224 125 211 138 z "},"å":{"ha":486,"x_min":0,"x_max":0,"o":"m 451 0 l 451 728 b 301 907 451 861 411 907 l 196 907 b 36 728 81 907 36 857 l 36 601 l 211 601 l 211 743 b 239 778 211 765 224 778 b 268 743 254 778 268 765 l 268 549 b 28 368 139 531 28 517 l 28 157 b 163 -12 28 18 86 -12 b 271 29 194 -12 242 0 l 285 0 z m 211 385 b 268 421 211 408 233 419 l 268 161 b 239 125 268 138 254 125 b 211 161 224 125 211 138 z m 242 1228 b 114 1100 169 1228 114 1172 b 242 972 114 1028 169 972 b 371 1100 313 972 371 1028 b 242 1228 371 1172 314 1228 z m 240 1149 b 292 1099 268 1149 292 1125 b 240 1047 292 1071 268 1047 b 190 1099 214 1047 190 1069 b 240 1149 190 1126 214 1149 z "},"^":{"ha":494,"x_min":0,"x_max":0,"o":"m 208 1111 l 7 910 l 94 822 l 247 975 l 400 822 l 488 910 l 286 1111 z "},"~":{"ha":529,"x_min":0,"x_max":0,"o":"m 357 975 b 292 993 336 975 314 983 l 254 1007 b 163 1026 226 1017 197 1026 b 7 908 97 1026 51 985 l 103 844 b 178 906 121 879 144 906 b 243 888 199 906 222 897 l 288 869 b 378 849 319 857 354 849 b 522 960 433 849 485 882 l 424 1031 b 357 975 411 993 389 975 z "},"*":{"ha":351,"x_min":0,"x_max":0,"o":"m 139 1131 l 139 1032 l 44 1063 l 18 990 l 110 956 l 53 872 l 117 826 l 176 908 l 239 826 l 300 872 l 243 953 l 333 990 l 306 1063 l 215 1032 l 215 1131 z "},"@":{"ha":1175,"x_min":0,"x_max":0,"o":"m 572 1132 b 21 567 301 1132 21 900 b 588 0 21 253 274 0 b 1154 567 900 0 1154 253 b 572 1132 1154 869 917 1132 z m 597 990 b 1013 567 801 990 1013 815 b 588 142 1013 331 821 142 b 164 567 350 142 164 331 b 597 990 164 792 338 990 z m 378 411 b 511 240 378 271 435 240 b 617 285 543 240 588 256 l 632 249 l 800 249 l 800 872 l 617 872 l 617 840 b 511 885 588 869 543 885 b 378 715 435 885 378 854 z m 617 414 b 588 379 617 390 603 379 b 560 414 572 379 560 390 l 560 711 b 588 747 560 735 572 747 b 617 711 603 747 617 735 z "},"ã":{"ha":486,"x_min":0,"x_max":0,"o":"m 451 0 l 451 728 b 301 907 451 861 411 907 l 196 907 b 36 728 81 907 36 857 l 36 601 l 211 601 l 211 743 b 239 778 211 765 224 778 b 268 743 254 778 268 765 l 268 549 b 28 368 139 531 28 517 l 28 157 b 163 -12 28 18 86 -12 b 271 29 194 -12 242 0 l 285 0 z m 211 385 b 268 421 211 408 233 419 l 268 161 b 239 125 268 138 254 125 b 211 161 224 125 211 138 z m 335 1103 b 269 1121 314 1103 292 1111 l 232 1135 b 140 1154 204 1144 175 1154 b -15 1036 75 1154 29 1113 l 81 972 b 156 1033 99 1007 122 1033 b 221 1015 176 1033 200 1025 l 265 997 b 356 976 297 985 332 976 b 500 1088 411 976 463 1010 l 401 1158 b 335 1103 389 1121 367 1103 z "},"b":{"ha":492,"x_min":0,"x_max":0,"o":"m 457 743 b 322 913 457 882 399 913 b 217 868 290 913 246 897 l 217 1131 l 35 1131 l 35 0 l 201 0 l 217 36 b 322 -8 246 7 290 -8 b 457 163 399 -8 457 22 z m 217 739 b 246 775 217 763 231 775 b 274 739 261 775 274 763 l 274 165 b 246 131 274 142 261 131 b 217 165 231 131 217 142 z "},"\\":{"ha":485,"x_min":0,"x_max":0,"o":"m 1 1151 l 325 -19 l 483 -19 l 158 1151 z "},"|":{"ha":281,"x_min":0,"x_max":0,"o":"m 42 -208 l 239 -208 l 239 1131 l 42 1131 z "},"{":{"ha":376,"x_min":0,"x_max":0,"o":"m 267 953 b 299 988 267 975 281 988 l 354 988 l 354 1131 l 254 1131 b 97 951 143 1131 97 1085 l 97 693 b 67 658 96 672 82 658 l 21 658 l 21 511 l 65 511 b 97 476 81 511 97 499 l 97 179 b 254 0 97 46 143 0 l 356 0 l 356 143 l 299 143 b 267 178 281 143 267 156 l 267 410 b 157 586 267 522 235 574 b 267 764 235 601 267 649 z "},"}":{"ha":376,"x_min":0,"x_max":0,"o":"m 110 764 b 219 586 110 649 142 601 b 110 410 142 574 110 522 l 110 178 b 78 143 110 156 96 143 l 21 143 l 21 0 l 122 0 b 279 179 233 0 279 46 l 279 476 b 311 511 279 499 296 511 l 356 511 l 356 658 l 310 658 b 279 693 294 658 281 672 l 279 951 b 122 1131 279 1085 233 1131 l 22 1131 l 22 988 l 78 988 b 110 953 96 988 110 975 z "},"[":{"ha":313,"x_min":0,"x_max":0,"o":"m 35 0 l 292 0 l 292 153 l 204 153 l 204 978 l 292 978 l 292 1131 l 35 1131 z "},"]":{"ha":313,"x_min":0,"x_max":0,"o":"m 278 1131 l 21 1131 l 21 978 l 108 978 l 108 153 l 21 153 l 21 0 l 278 0 z "},"˘":{"ha":417,"x_min":0,"x_max":0,"o":"m 35 1157 b 207 972 44 1035 106 972 b 381 1157 308 972 371 1035 l 278 1157 b 207 1072 271 1108 257 1072 b 139 1157 157 1072 144 1108 z "},"¦":{"ha":281,"x_min":0,"x_max":0,"o":"m 42 -208 l 239 -208 l 239 299 l 42 299 z m 239 1131 l 42 1131 l 42 626 l 239 626 z "},"•":{"ha":375,"x_min":0,"x_max":0,"o":"m 340 614 b 188 763 340 686 276 763 b 35 608 103 763 35 692 b 188 457 35 524 103 457 b 340 614 269 457 340 522 z "},"c":{"ha":478,"x_min":0,"x_max":0,"o":"m 274 161 b 244 125 274 138 260 125 b 217 161 229 125 217 138 l 217 743 b 246 778 217 765 231 778 b 274 743 261 778 274 765 l 274 596 l 450 596 l 450 728 b 289 907 450 857 406 907 l 190 907 b 35 728 79 907 35 861 l 35 176 b 201 -4 35 44 86 -4 l 301 -4 b 450 176 411 -4 450 42 l 450 335 l 274 335 z "},"ć":{"ha":478,"x_min":0,"x_max":0,"o":"m 274 161 b 244 125 274 138 260 125 b 217 161 229 125 217 138 l 217 743 b 246 778 217 765 231 778 b 274 743 261 778 274 765 l 274 596 l 450 596 l 450 728 b 289 907 450 857 406 907 l 190 907 b 35 728 79 907 35 861 l 35 176 b 201 -4 35 44 86 -4 l 301 -4 b 450 176 411 -4 450 42 l 450 335 l 274 335 z m 264 1136 l 157 972 l 281 972 l 482 1136 z "},"ˇ":{"ha":417,"x_min":0,"x_max":0,"o":"m 142 1144 l -31 1144 l 128 972 l 299 972 l 446 1144 l 281 1144 l 213 1064 z "},"č":{"ha":478,"x_min":0,"x_max":0,"o":"m 274 161 b 244 125 274 138 260 125 b 217 161 229 125 217 138 l 217 743 b 246 778 217 765 231 778 b 274 743 261 778 274 765 l 274 596 l 450 596 l 450 728 b 289 907 450 857 406 907 l 190 907 b 35 728 79 907 35 861 l 35 176 b 201 -4 35 44 86 -4 l 301 -4 b 450 176 411 -4 450 42 l 450 335 l 274 335 z m 172 1144 l 0 1144 l 158 972 l 329 972 l 476 1144 l 311 1144 l 243 1064 z "},"ç":{"ha":478,"x_min":0,"x_max":0,"o":"m 219 -103 b 272 -143 251 -103 272 -117 b 238 -179 272 -167 261 -179 b 204 -154 219 -179 211 -169 l 114 -154 b 235 -250 132 -219 181 -250 b 364 -136 308 -250 364 -196 b 276 -56 364 -92 332 -60 l 276 -4 l 301 -4 b 450 176 411 -4 450 42 l 450 335 l 274 335 l 274 161 b 244 125 274 138 260 125 b 217 161 229 125 217 138 l 217 743 b 246 778 217 765 231 778 b 274 743 261 778 274 765 l 274 596 l 450 596 l 450 728 b 289 907 450 857 406 907 l 190 907 b 35 728 79 907 35 861 l 35 176 b 201 -4 35 44 86 -4 l 204 -4 l 204 -103 z "},"ĉ":{"ha":478,"x_min":0,"x_max":0,"o":"m 274 161 b 244 125 274 138 260 125 b 217 161 229 125 217 138 l 217 743 b 246 778 217 765 231 778 b 274 743 261 778 274 765 l 274 596 l 450 596 l 450 728 b 289 907 450 857 406 907 l 190 907 b 35 728 79 907 35 861 l 35 176 b 201 -4 35 44 86 -4 l 301 -4 b 450 176 411 -4 450 42 l 450 335 l 274 335 z m 311 972 l 476 972 l 329 1144 l 158 1144 l 0 972 l 172 972 l 243 1051 z "},"ċ":{"ha":478,"x_min":0,"x_max":0,"o":"m 274 161 b 244 125 274 138 260 125 b 217 161 229 125 217 138 l 217 743 b 246 778 217 765 231 778 b 274 743 261 778 274 765 l 274 596 l 450 596 l 450 728 b 289 907 450 857 406 907 l 190 907 b 35 728 79 907 35 861 l 35 176 b 201 -4 35 44 86 -4 l 301 -4 b 450 176 411 -4 450 42 l 450 335 l 274 335 z m 161 1131 l 161 972 l 317 972 l 317 1131 z "},"¸":{"ha":417,"x_min":0,"x_max":0,"o":"m 174 -117 b 226 -157 206 -117 226 -131 b 192 -193 226 -181 215 -193 b 158 -168 174 -193 165 -183 l 68 -168 b 189 -264 86 -233 135 -264 b 318 -150 263 -264 318 -210 b 231 -69 318 -106 286 -74 l 231 7 l 158 7 l 158 -117 z "},"¢":{"ha":478,"x_min":0,"x_max":0,"o":"m 274 274 b 244 238 274 250 260 238 b 217 274 229 238 217 250 l 217 856 b 246 890 217 878 231 890 b 274 856 261 890 274 878 l 274 708 l 450 708 l 450 840 b 306 1018 450 963 410 1014 l 306 1131 l 179 1131 l 179 1019 b 35 840 75 1015 35 968 l 35 289 b 179 108 35 167 79 115 l 179 0 l 306 0 l 306 108 b 450 289 413 108 450 157 l 450 447 l 274 447 z "},"ˆ":{"ha":417,"x_min":0,"x_max":0,"o":"m 281 972 l 446 972 l 299 1144 l 128 1144 l -31 972 l 142 972 l 213 1051 z "},":":{"ha":238,"x_min":0,"x_max":0,"o":"m 210 168 l 28 168 l 28 0 l 210 0 z m 210 654 l 28 654 l 28 486 l 210 486 z "},",":{"ha":224,"x_min":0,"x_max":0,"o":"m 203 168 l 21 168 l 21 0 l 97 0 l 49 -194 l 203 0 z "},"":{"ha":251,"x_min":0,"x_max":0,"o":"m 217 -97 l 35 -97 l 35 -265 l 111 -265 l 63 -460 l 217 -265 z "},"©":{"ha":1175,"x_min":0,"x_max":0,"o":"m 572 1132 b 21 567 301 1132 21 900 b 588 0 21 253 274 0 b 1154 567 900 0 1154 253 b 572 1132 1154 869 917 1132 z m 597 990 b 1013 567 801 990 1013 815 b 588 142 1013 331 821 142 b 164 567 350 142 164 331 b 597 990 164 792 338 990 z m 618 397 b 589 361 618 374 604 361 b 561 397 574 361 561 374 l 561 729 b 590 764 561 751 575 764 b 618 729 606 764 618 751 l 618 665 l 794 665 l 794 714 b 633 893 794 843 750 893 l 535 893 b 379 714 424 893 379 847 l 379 413 b 546 232 379 281 431 232 l 646 232 b 794 413 756 232 794 278 l 794 488 l 618 488 z "},"¤":{"ha":514,"x_min":0,"x_max":0,"o":"m 0 621 l 35 621 l 35 549 l 0 549 l 0 479 l 35 479 l 35 168 b 201 -12 35 39 86 -12 l 331 -12 b 486 168 442 -12 486 33 l 486 410 l 296 410 l 296 168 b 264 133 296 146 279 133 b 232 168 249 133 232 146 l 232 479 l 482 479 l 482 549 l 232 549 l 232 621 l 482 621 l 482 690 l 232 690 l 232 965 b 265 1001 232 989 250 1001 b 296 965 281 1001 296 989 l 296 764 l 486 764 l 486 965 b 318 1146 486 1097 435 1146 l 190 1146 b 35 965 79 1146 35 1100 l 35 690 l 0 690 z "},"d":{"ha":492,"x_min":0,"x_max":0,"o":"m 35 163 b 168 -8 35 22 92 -8 b 274 36 200 -8 244 7 l 289 0 l 457 0 l 457 1131 l 274 1131 l 274 868 b 168 913 244 897 200 913 b 35 743 92 913 35 882 z m 274 165 b 244 131 274 142 260 131 b 217 165 229 131 217 142 l 217 739 b 244 775 217 763 229 775 b 274 739 260 775 274 763 z "},"†":{"ha":583,"x_min":0,"x_max":0,"o":"m 14 775 l 208 775 l 208 0 l 390 0 l 390 775 l 569 775 l 569 900 l 390 900 l 390 1131 l 208 1131 l 208 900 l 14 900 z "},"‡":{"ha":583,"x_min":0,"x_max":0,"o":"m 14 775 l 208 775 l 208 614 l 14 614 l 14 489 l 208 489 l 208 0 l 390 0 l 390 489 l 569 489 l 569 614 l 390 614 l 390 775 l 569 775 l 569 900 l 390 900 l 390 1131 l 208 1131 l 208 900 l 14 900 z "},"ď":{"ha":683,"x_min":0,"x_max":0,"o":"m 35 163 b 168 -8 35 22 92 -8 b 274 36 200 -8 244 7 l 289 0 l 457 0 l 457 1131 l 274 1131 l 274 868 b 168 913 244 897 200 913 b 35 743 92 913 35 882 z m 274 165 b 244 131 274 142 260 131 b 217 165 229 131 217 142 l 217 739 b 244 775 217 763 229 775 b 274 739 260 775 274 763 z m 708 1131 l 526 1131 l 526 963 l 603 963 l 554 768 l 708 963 z "},"đ":{"ha":492,"x_min":0,"x_max":0,"o":"m 160 990 l 274 990 l 274 868 b 168 913 244 897 200 913 b 35 743 92 913 35 882 l 35 163 b 168 -8 35 22 92 -8 b 274 36 200 -8 244 7 l 289 0 l 457 0 l 457 990 l 492 990 l 492 1061 l 457 1061 l 457 1131 l 274 1131 l 274 1061 l 160 1061 z m 274 165 b 244 131 274 142 260 131 b 217 165 229 131 217 142 l 217 739 b 244 775 217 763 229 775 b 274 739 260 775 274 763 z "},"°":{"ha":432,"x_min":0,"x_max":0,"o":"m 21 896 b 217 706 21 803 101 706 b 411 900 324 706 411 793 b 217 1094 411 1007 324 1094 b 21 896 111 1094 21 1013 z m 122 901 b 217 993 122 946 161 993 b 308 900 267 993 308 951 b 217 807 308 849 267 807 b 122 901 167 807 122 846 z "},"¨":{"ha":417,"x_min":0,"x_max":0,"o":"m -4 1131 l -4 972 l 153 972 l 153 1131 z m 261 1131 l 261 972 l 421 972 l 421 1131 z "},"÷":{"ha":583,"x_min":0,"x_max":0,"o":"m 14 388 l 569 388 l 569 513 l 14 513 z m 385 289 l 203 289 l 203 121 l 385 121 z m 385 775 l 203 775 l 203 607 l 385 607 z "},"$":{"ha":506,"x_min":0,"x_max":0,"o":"m 286 167 b 254 132 286 144 272 132 b 224 167 233 132 224 143 l 224 404 l 35 404 l 35 168 b 183 -12 35 42 78 -8 l 183 -139 l 332 -139 l 332 -12 b 478 168 433 -8 478 39 l 478 403 b 224 788 478 613 224 660 l 224 968 b 256 1003 224 990 238 1003 b 286 968 272 1003 286 990 l 286 763 l 471 763 l 471 967 b 332 1144 471 1089 432 1139 l 332 1278 l 183 1278 l 183 1146 b 28 967 74 1144 28 1099 l 28 754 b 286 364 28 567 286 496 z "},"˙":{"ha":417,"x_min":0,"x_max":0,"o":"m 131 1131 l 131 972 l 286 972 l 286 1131 z "},"ı":{"ha":251,"x_min":0,"x_max":0,"o":"m 35 0 l 217 0 l 217 900 l 35 900 z "},"ȷ":{"ha":251,"x_min":0,"x_max":0,"o":"m 35 -207 l 217 -207 l 217 900 l 35 900 z "},"e":{"ha":483,"x_min":0,"x_max":0,"o":"m 272 161 b 243 125 272 138 258 125 b 215 161 228 125 215 138 l 215 414 l 449 414 l 449 728 b 281 907 449 857 396 907 l 190 907 b 35 728 79 907 35 861 l 35 176 b 201 -4 35 44 86 -4 l 300 -4 b 449 176 410 -4 449 42 l 449 335 l 272 335 z m 215 743 b 244 778 215 765 229 778 b 272 743 260 778 272 765 l 272 529 l 215 529 z "},"é":{"ha":483,"x_min":0,"x_max":0,"o":"m 272 161 b 243 125 272 138 258 125 b 215 161 228 125 215 138 l 215 414 l 449 414 l 449 728 b 281 907 449 857 396 907 l 190 907 b 35 728 79 907 35 861 l 35 176 b 201 -4 35 44 86 -4 l 300 -4 b 449 176 410 -4 449 42 l 449 335 l 272 335 z m 215 743 b 244 778 215 765 229 778 b 272 743 260 778 272 765 l 272 529 l 215 529 z m 258 1136 l 151 972 l 275 972 l 476 1136 z "},"ě":{"ha":483,"x_min":0,"x_max":0,"o":"m 272 161 b 243 125 272 138 258 125 b 215 161 228 125 215 138 l 215 414 l 449 414 l 449 728 b 281 907 449 857 396 907 l 190 907 b 35 728 79 907 35 861 l 35 176 b 201 -4 35 44 86 -4 l 300 -4 b 449 176 410 -4 449 42 l 449 335 l 272 335 z m 215 743 b 244 778 215 765 229 778 b 272 743 260 778 272 765 l 272 529 l 215 529 z m 175 1144 l 3 1144 l 161 972 l 332 972 l 479 1144 l 314 1144 l 246 1064 z "},"ê":{"ha":483,"x_min":0,"x_max":0,"o":"m 272 161 b 243 125 272 138 258 125 b 215 161 228 125 215 138 l 215 414 l 449 414 l 449 728 b 281 907 449 857 396 907 l 190 907 b 35 728 79 907 35 861 l 35 176 b 201 -4 35 44 86 -4 l 300 -4 b 449 176 410 -4 449 42 l 449 335 l 272 335 z m 215 743 b 244 778 215 765 229 778 b 272 743 260 778 272 765 l 272 529 l 215 529 z m 317 972 l 482 972 l 335 1144 l 164 1144 l 6 972 l 178 972 l 249 1051 z "},"ë":{"ha":483,"x_min":0,"x_max":0,"o":"m 272 161 b 243 125 272 138 258 125 b 215 161 228 125 215 138 l 215 414 l 449 414 l 449 728 b 281 907 449 857 396 907 l 190 907 b 35 728 79 907 35 861 l 35 176 b 201 -4 35 44 86 -4 l 300 -4 b 449 176 410 -4 449 42 l 449 335 l 272 335 z m 215 743 b 244 778 215 765 229 778 b 272 743 260 778 272 765 l 272 529 l 215 529 z m 32 1131 l 32 972 l 189 972 l 189 1131 z m 297 1131 l 297 972 l 457 972 l 457 1131 z "},"ė":{"ha":483,"x_min":0,"x_max":0,"o":"m 272 161 b 243 125 272 138 258 125 b 215 161 228 125 215 138 l 215 414 l 449 414 l 449 728 b 281 907 449 857 396 907 l 190 907 b 35 728 79 907 35 861 l 35 176 b 201 -4 35 44 86 -4 l 300 -4 b 449 176 410 -4 449 42 l 449 335 l 272 335 z m 215 743 b 244 778 215 765 229 778 b 272 743 260 778 272 765 l 272 529 l 215 529 z m 164 1131 l 164 972 l 319 972 l 319 1131 z "},"è":{"ha":483,"x_min":0,"x_max":0,"o":"m 272 161 b 243 125 272 138 258 125 b 215 161 228 125 215 138 l 215 414 l 449 414 l 449 728 b 281 907 449 857 396 907 l 190 907 b 35 728 79 907 35 861 l 35 176 b 201 -4 35 44 86 -4 l 300 -4 b 449 176 410 -4 449 42 l 449 335 l 272 335 z m 215 743 b 244 778 215 765 229 778 b 272 743 260 778 272 765 l 272 529 l 215 529 z m 228 972 l 351 972 l 244 1136 l 26 1136 z "},"…":{"ha":671,"x_min":0,"x_max":0,"o":"m 203 168 l 21 168 l 21 0 l 203 0 z m 426 168 l 244 168 l 244 0 l 426 0 z m 650 168 l 468 168 l 468 0 l 650 0 z "},"ē":{"ha":483,"x_min":0,"x_max":0,"o":"m 272 161 b 243 125 272 138 258 125 b 215 161 228 125 215 138 l 215 414 l 449 414 l 449 728 b 281 907 449 857 396 907 l 190 907 b 35 728 79 907 35 861 l 35 176 b 201 -4 35 44 86 -4 l 300 -4 b 449 176 410 -4 449 42 l 449 335 l 272 335 z m 215 743 b 244 778 215 765 229 778 b 272 743 260 778 272 765 l 272 529 l 215 529 z m -1 1076 l -1 972 l 485 972 l 485 1076 z "},"—":{"ha":690,"x_min":0,"x_max":0,"o":"m 14 388 l 676 388 l 676 513 l 14 513 z "},"–":{"ha":536,"x_min":0,"x_max":0,"o":"m 14 388 l 522 388 l 522 513 l 14 513 z "},"ŋ":{"ha":492,"x_min":0,"x_max":0,"o":"m 217 739 b 246 775 217 763 231 775 b 274 739 261 775 274 763 l 274 -208 l 457 -208 l 457 743 b 322 913 457 882 399 913 b 214 871 290 913 243 900 l 199 900 l 35 900 l 35 0 l 217 0 z "},"ę":{"ha":483,"x_min":0,"x_max":0,"o":"m 396 -106 b 326 -121 378 -112 354 -121 b 282 -82 297 -121 282 -108 b 331 -3 282 -58 301 -32 b 449 176 418 7 449 54 l 449 335 l 272 335 l 272 161 b 243 125 272 138 258 125 b 215 161 228 125 215 138 l 215 414 l 449 414 l 449 728 b 281 907 449 857 396 907 l 190 907 b 35 728 79 907 35 861 l 35 176 b 201 -4 35 44 86 -4 l 240 -4 b 193 -99 213 -32 193 -60 b 315 -194 193 -154 238 -194 b 421 -167 365 -194 394 -178 z m 215 743 b 244 778 215 765 229 778 b 272 743 260 778 272 765 l 272 529 l 215 529 z "},"=":{"ha":597,"x_min":0,"x_max":0,"o":"m 21 533 l 576 533 l 576 658 l 21 658 z m 21 242 l 576 242 l 576 367 l 21 367 z "},"ð":{"ha":485,"x_min":0,"x_max":0,"o":"m 294 -4 b 450 176 406 -4 450 42 l 450 767 b 369 1076 450 888 449 1006 l 418 1118 l 390 1146 l 338 1099 b 164 1136 294 1122 242 1136 b 51 1124 119 1136 89 1135 l 51 992 b 147 1006 83 1003 110 1006 b 215 992 176 1006 200 1001 l 182 963 l 206 935 l 243 967 b 267 838 264 938 267 892 b 165 907 239 897 199 907 b 28 728 71 907 28 861 l 28 176 b 194 -4 28 44 79 -4 z m 267 161 b 238 125 267 138 253 125 b 210 161 222 125 210 138 l 210 735 b 239 769 210 757 224 769 b 267 735 254 769 267 757 z "},"!":{"ha":251,"x_min":0,"x_max":0,"o":"m 63 231 l 189 231 l 231 1131 l 21 1131 z m 217 168 l 35 168 l 35 0 l 217 0 z "},"¡":{"ha":251,"x_min":0,"x_max":0,"o":"m 189 692 l 63 692 l 21 -208 l 231 -208 z m 35 754 l 217 754 l 217 922 l 35 922 z "},"f":{"ha":308,"x_min":0,"x_max":0,"o":"m 7 775 l 53 775 l 53 0 l 236 0 l 236 775 l 299 775 l 299 900 l 236 900 l 236 969 b 264 1006 236 993 249 1006 l 301 1006 l 301 1131 l 190 1131 b 53 967 97 1131 53 1104 l 53 900 l 7 900 z "},"ﬀ":{"ha":617,"x_min":0,"x_max":0,"o":"m 7 775 l 53 775 l 53 0 l 236 0 l 236 775 l 299 775 l 299 900 l 236 900 l 236 969 b 264 1006 236 993 249 1006 l 301 1006 l 301 1131 l 190 1131 b 53 967 97 1131 53 1104 l 53 900 l 7 900 z m 315 775 l 361 775 l 361 0 l 544 0 l 544 775 l 607 775 l 607 900 l 544 900 l 544 969 b 572 1006 544 993 557 1006 l 610 1006 l 610 1131 l 499 1131 b 361 967 406 1131 361 1104 l 361 900 l 315 900 z "},"ﬃ":{"ha":868,"x_min":0,"x_max":0,"o":"m 7 775 l 53 775 l 53 0 l 236 0 l 236 775 l 299 775 l 299 900 l 236 900 l 236 969 b 264 1006 236 993 249 1006 l 301 1006 l 301 1131 l 190 1131 b 53 967 97 1131 53 1104 l 53 900 l 7 900 z m 315 775 l 361 775 l 361 0 l 544 0 l 544 775 l 607 775 l 607 900 l 544 900 l 544 969 b 572 1006 544 993 557 1006 l 610 1006 l 610 1131 l 499 1131 b 361 967 406 1131 361 1104 l 361 900 l 315 900 z m 651 0 l 833 0 l 833 900 l 651 900 z m 833 1131 l 651 1131 l 651 963 l 833 963 z "},"ﬄ":{"ha":868,"x_min":0,"x_max":0,"o":"m 7 775 l 53 775 l 53 0 l 236 0 l 236 775 l 299 775 l 299 900 l 236 900 l 236 969 b 264 1006 236 993 249 1006 l 301 1006 l 301 1131 l 190 1131 b 53 967 97 1131 53 1104 l 53 900 l 7 900 z m 315 775 l 361 775 l 361 0 l 544 0 l 544 775 l 607 775 l 607 900 l 544 900 l 544 969 b 572 1006 544 993 557 1006 l 610 1006 l 610 1131 l 499 1131 b 361 967 406 1131 361 1104 l 361 900 l 315 900 z m 651 0 l 833 0 l 833 1131 l 651 1131 z "},"ﬁ":{"ha":560,"x_min":0,"x_max":0,"o":"m 7 775 l 53 775 l 53 0 l 236 0 l 236 775 l 299 775 l 299 900 l 236 900 l 236 969 b 264 1006 236 993 249 1006 l 301 1006 l 301 1131 l 190 1131 b 53 967 97 1131 53 1104 l 53 900 l 7 900 z m 343 0 l 525 0 l 525 900 l 343 900 z m 525 1131 l 343 1131 l 343 963 l 525 963 z "},"ﬂ":{"ha":560,"x_min":0,"x_max":0,"o":"m 7 775 l 53 775 l 53 0 l 236 0 l 236 775 l 299 775 l 299 900 l 236 900 l 236 969 b 264 1006 236 993 249 1006 l 301 1006 l 301 1131 l 190 1131 b 53 967 97 1131 53 1104 l 53 900 l 7 900 z m 343 0 l 525 0 l 525 1131 l 343 1131 z "},"ƒ":{"ha":336,"x_min":0,"x_max":0,"o":"m 257 569 l 319 569 l 319 694 l 257 694 l 257 969 b 285 1006 257 993 269 1006 l 322 1006 l 322 1131 l 211 1131 b 74 967 118 1131 74 1104 l 74 694 l 14 694 l 14 569 l 74 569 l 74 -47 b 46 -83 74 -71 61 -83 l 14 -83 l 14 -208 l 119 -208 b 257 -44 213 -208 257 -182 z "},"⁄":{"ha":576,"x_min":0,"x_max":0,"o":"m 449 1131 l 0 0 l 131 0 l 578 1131 z "},"g":{"ha":492,"x_min":0,"x_max":0,"o":"m 274 -43 b 244 -78 274 -65 260 -78 b 217 -60 226 -78 217 -72 l 49 -60 b 192 -208 49 -156 76 -208 l 310 -208 b 457 -28 419 -208 457 -162 l 457 900 l 289 900 l 274 863 b 168 907 244 892 200 907 b 35 738 92 907 35 876 l 35 157 b 168 -12 35 18 92 -12 b 274 32 200 -12 244 3 z m 274 161 b 244 125 274 138 260 125 b 217 161 229 125 217 138 l 217 735 b 244 769 217 758 229 769 b 274 735 260 769 274 758 z "},"ğ":{"ha":492,"x_min":0,"x_max":0,"o":"m 274 -43 b 244 -78 274 -65 260 -78 b 217 -60 226 -78 217 -72 l 49 -60 b 192 -208 49 -156 76 -208 l 310 -208 b 457 -28 419 -208 457 -162 l 457 900 l 289 900 l 274 863 b 168 907 244 892 200 907 b 35 738 92 907 35 876 l 35 157 b 168 -12 35 18 92 -12 b 274 32 200 -12 244 3 z m 274 161 b 244 125 274 138 260 125 b 217 161 229 125 217 138 l 217 735 b 244 769 217 758 229 769 b 274 735 260 769 274 758 z m 72 1157 b 244 972 82 1035 143 972 b 418 1157 346 972 408 1035 l 315 1157 b 244 1072 308 1108 294 1072 b 176 1157 194 1072 182 1108 z "},"ĝ":{"ha":492,"x_min":0,"x_max":0,"o":"m 274 -43 b 244 -78 274 -65 260 -78 b 217 -60 226 -78 217 -72 l 49 -60 b 192 -208 49 -156 76 -208 l 310 -208 b 457 -28 419 -208 457 -162 l 457 900 l 289 900 l 274 863 b 168 907 244 892 200 907 b 35 738 92 907 35 876 l 35 157 b 168 -12 35 18 92 -12 b 274 32 200 -12 244 3 z m 274 161 b 244 125 274 138 260 125 b 217 161 229 125 217 138 l 217 735 b 244 769 217 758 229 769 b 274 735 260 769 274 758 z m 318 972 l 483 972 l 336 1144 l 165 1144 l 7 972 l 179 972 l 250 1051 z "},"ģ":{"ha":492,"x_min":0,"x_max":0,"o":"m 274 -43 b 244 -78 274 -65 260 -78 b 217 -60 226 -78 217 -72 l 49 -60 b 192 -208 49 -156 76 -208 l 310 -208 b 457 -28 419 -208 457 -162 l 457 900 l 289 900 l 274 863 b 168 907 244 892 200 907 b 35 738 92 907 35 876 l 35 157 b 168 -12 35 18 92 -12 b 274 32 200 -12 244 3 z m 274 161 b 244 125 274 138 260 125 b 217 161 229 125 217 138 l 217 735 b 244 769 217 758 229 769 b 274 735 260 769 274 758 z m 154 999 l 336 999 l 336 1167 l 260 1167 l 308 1361 l 154 1167 z "},"ġ":{"ha":492,"x_min":0,"x_max":0,"o":"m 274 -43 b 244 -78 274 -65 260 -78 b 217 -60 226 -78 217 -72 l 49 -60 b 192 -208 49 -156 76 -208 l 310 -208 b 457 -28 419 -208 457 -162 l 457 900 l 289 900 l 274 863 b 168 907 244 892 200 907 b 35 738 92 907 35 876 l 35 157 b 168 -12 35 18 92 -12 b 274 32 200 -12 244 3 z m 274 161 b 244 125 274 138 260 125 b 217 161 229 125 217 138 l 217 735 b 244 769 217 758 229 769 b 274 735 260 769 274 758 z m 168 1131 l 168 972 l 324 972 l 324 1131 z "},"ß":{"ha":500,"x_min":0,"x_max":0,"o":"m 219 950 b 250 986 219 974 235 986 b 281 950 265 986 281 974 l 281 796 b 251 761 281 775 267 761 l 243 761 l 243 614 l 249 614 b 281 579 264 614 281 601 l 281 176 b 250 140 281 153 265 140 l 242 140 l 242 -4 l 297 -4 b 465 176 413 -4 465 44 l 465 513 b 356 689 465 625 433 676 b 465 867 433 704 465 751 l 465 950 b 297 1131 465 1082 413 1131 l 203 1131 b 35 950 88 1131 35 1082 l 35 0 l 219 0 z "},"`":{"ha":417,"x_min":0,"x_max":0,"o":"m 201 972 l 325 972 l 218 1136 l 0 1136 z "},">":{"ha":419,"x_min":0,"x_max":0,"o":"m 208 868 l 21 868 l 211 538 l 21 188 l 208 188 l 399 538 z "},"«":{"ha":560,"x_min":0,"x_max":0,"o":"m 21 458 l 169 108 l 314 108 l 167 458 l 314 789 l 169 789 z m 244 458 l 393 108 l 539 108 l 390 458 l 539 789 l 393 789 z "},"»":{"ha":560,"x_min":0,"x_max":0,"o":"m 390 789 l 246 789 l 393 458 l 246 108 l 390 108 l 539 458 z m 167 789 l 21 789 l 169 458 l 21 108 l 167 108 l 315 458 z "},"‹":{"ha":336,"x_min":0,"x_max":0,"o":"m 21 458 l 169 108 l 315 108 l 167 458 l 315 789 l 169 789 z "},"›":{"ha":336,"x_min":0,"x_max":0,"o":"m 167 789 l 21 789 l 169 458 l 21 108 l 167 108 l 315 458 z "},"h":{"ha":492,"x_min":0,"x_max":0,"o":"m 217 739 b 246 775 217 763 231 775 b 274 739 261 775 274 763 l 274 0 l 457 0 l 457 743 b 322 913 457 882 399 913 b 217 868 290 913 246 897 l 217 1131 l 35 1131 l 35 0 l 217 0 z "},"ħ":{"ha":492,"x_min":0,"x_max":0,"o":"m 0 1063 l 0 1000 l 35 1000 l 35 0 l 217 0 l 217 739 b 246 775 217 763 231 775 b 274 739 261 775 274 763 l 274 0 l 457 0 l 457 743 b 322 913 457 882 399 913 b 217 868 290 913 246 897 l 217 1000 l 451 1000 l 451 1063 l 217 1063 l 217 1131 l 35 1131 l 35 1063 z "},"ĥ":{"ha":492,"x_min":0,"x_max":0,"o":"m 217 739 b 246 775 217 763 231 775 b 274 739 261 775 274 763 l 274 0 l 457 0 l 457 743 b 322 913 457 882 399 913 b 217 868 290 913 246 897 l 217 1131 l 35 1131 l 35 0 l 217 0 z m 200 1200 l 365 1200 l 218 1372 l 47 1372 l -111 1200 l 61 1200 l 132 1279 z "},"˝":{"ha":417,"x_min":0,"x_max":0,"o":"m 101 1161 l 29 974 l 119 974 l 267 1161 z m 311 1161 l 239 974 l 329 974 l 476 1161 z "},"-":{"ha":361,"x_min":0,"x_max":0,"o":"m 14 388 l 347 388 l 347 513 l 14 513 z "},"i":{"ha":251,"x_min":0,"x_max":0,"o":"m 35 0 l 217 0 l 217 900 l 35 900 z m 217 1131 l 35 1131 l 35 963 l 217 963 z "},"í":{"ha":251,"x_min":0,"x_max":0,"o":"m 35 0 l 217 0 l 217 900 l 35 900 z m 149 1136 l 42 972 l 165 972 l 367 1136 z "},"î":{"ha":251,"x_min":0,"x_max":0,"o":"m 35 0 l 217 0 l 217 900 l 35 900 z m 199 972 l 364 972 l 217 1144 l 46 1144 l -112 972 l 60 972 l 131 1051 z "},"ï":{"ha":251,"x_min":0,"x_max":0,"o":"m 35 0 l 217 0 l 217 900 l 35 900 z m -86 1131 l -86 972 l 71 972 l 71 1131 z m 179 1131 l 179 972 l 339 972 l 339 1131 z "},"ì":{"ha":251,"x_min":0,"x_max":0,"o":"m 35 0 l 217 0 l 217 900 l 35 900 z m 100 972 l 224 972 l 117 1136 l -101 1136 z "},"ī":{"ha":251,"x_min":0,"x_max":0,"o":"m 35 0 l 217 0 l 217 900 l 35 900 z m -117 1076 l -117 972 l 369 972 l 369 1076 z "},"∫":{"ha":294,"x_min":0,"x_max":0,"o":"m 239 969 b 267 1006 239 993 251 1006 l 304 1006 l 304 1131 l 193 1131 b 56 967 100 1131 56 1104 l 56 -47 b 28 -83 56 -71 43 -83 l -4 -83 l -4 -208 l 101 -208 b 239 -44 194 -208 239 -182 z "},"į":{"ha":251,"x_min":0,"x_max":0,"o":"m 35 0 l 92 0 b 40 -99 60 -29 40 -58 b 163 -194 40 -154 85 -194 b 268 -167 213 -194 242 -178 l 243 -106 b 174 -121 225 -112 201 -121 b 129 -82 144 -121 129 -108 b 181 0 129 -56 149 -32 l 217 0 l 217 900 l 35 900 z m 217 1131 l 35 1131 l 35 963 l 217 963 z "},"ĩ":{"ha":251,"x_min":0,"x_max":0,"o":"m 35 0 l 217 0 l 217 900 l 35 900 z m 218 1103 b 153 1121 197 1103 175 1111 l 115 1135 b 24 1154 88 1144 58 1154 b -132 1036 -42 1154 -87 1113 l -36 972 b 39 1033 -18 1007 6 1033 b 104 1015 60 1033 83 1025 l 149 997 b 239 976 181 985 215 976 b 383 1088 294 976 346 1010 l 285 1158 b 218 1103 272 1121 250 1103 z "},"j":{"ha":251,"x_min":0,"x_max":0,"o":"m 35 -207 l 217 -207 l 217 900 l 35 900 z m 217 1131 l 35 1131 l 35 963 l 217 963 z "},"ĵ":{"ha":251,"x_min":0,"x_max":0,"o":"m 35 -207 l 217 -207 l 217 900 l 35 900 z m 199 972 l 364 972 l 217 1144 l 46 1144 l -112 972 l 60 972 l 131 1051 z "},"k":{"ha":476,"x_min":0,"x_max":0,"o":"m 35 0 l 217 0 l 217 428 l 292 0 l 476 0 l 381 475 l 460 900 l 283 900 l 217 515 l 217 1131 l 35 1131 z "},"ķ":{"ha":478,"x_min":0,"x_max":0,"o":"m 35 0 l 217 0 l 217 428 l 292 0 l 476 0 l 381 475 l 460 900 l 283 900 l 217 515 l 217 1131 l 35 1131 z m 332 -97 l 150 -97 l 150 -265 l 226 -265 l 178 -460 l 332 -265 z "},"ĸ":{"ha":476,"x_min":0,"x_max":0,"o":"m 35 0 l 217 0 l 217 428 l 292 0 l 476 0 l 381 475 l 460 900 l 283 900 l 217 515 l 217 900 l 35 900 z "},"l":{"ha":251,"x_min":0,"x_max":0,"o":"m 35 0 l 217 0 l 217 1131 l 35 1131 z "},"ĺ":{"ha":251,"x_min":0,"x_max":0,"o":"m 35 0 l 217 0 l 217 1131 l 35 1131 z m 111 1375 l 4 1211 l 128 1211 l 329 1375 z "},"ľ":{"ha":447,"x_min":0,"x_max":0,"o":"m 35 0 l 217 0 l 217 1131 l 35 1131 z m 468 1131 l 286 1131 l 286 963 l 363 963 l 314 768 l 468 963 z "},"ļ":{"ha":251,"x_min":0,"x_max":0,"o":"m 35 0 l 217 0 l 217 1131 l 35 1131 z m 217 -97 l 35 -97 l 35 -265 l 111 -265 l 63 -460 l 217 -265 z "},"<":{"ha":419,"x_min":0,"x_max":0,"o":"m 21 538 l 211 188 l 399 188 l 208 538 l 399 868 l 211 868 z "},"¬":{"ha":597,"x_min":0,"x_max":0,"o":"m 14 513 l 14 388 l 444 388 l 444 172 l 569 172 l 569 513 z "},"ł":{"ha":251,"x_min":0,"x_max":0,"o":"m 217 1131 l 35 1131 l 35 500 l 0 485 l 0 360 l 35 375 l 35 0 l 217 0 l 217 454 l 251 469 l 251 594 l 217 579 z "},"m":{"ha":732,"x_min":0,"x_max":0,"o":"m 217 739 b 246 775 217 763 231 775 b 274 739 261 775 274 763 l 274 0 l 457 0 l 457 743 b 486 775 458 764 468 775 b 514 739 501 775 514 763 l 514 0 l 697 0 l 697 743 b 563 913 697 882 639 913 b 436 853 531 913 471 899 b 322 913 413 899 372 913 b 214 871 290 913 243 900 l 199 900 l 35 900 l 35 0 l 217 0 z "},"¯":{"ha":528,"x_min":0,"x_max":0,"o":"m 21 1076 l 21 972 l 507 972 l 507 1076 z "},"−":{"ha":583,"x_min":0,"x_max":0,"o":"m 14 388 l 569 388 l 569 513 l 14 513 z "},"µ":{"ha":492,"x_min":0,"x_max":0,"o":"m 35 -208 l 217 -208 l 217 32 b 322 -12 246 3 290 -12 b 457 157 399 -12 457 18 l 457 900 l 274 900 l 274 161 b 246 125 274 138 261 125 b 217 161 231 125 217 138 l 217 900 l 35 900 z "},"μ":{"ha":492,"x_min":0,"x_max":0,"o":"m 35 -208 l 217 -208 l 217 32 b 322 -12 246 3 290 -12 b 457 157 399 -12 457 18 l 457 900 l 274 900 l 274 161 b 246 125 274 138 261 125 b 217 161 231 125 217 138 l 217 900 l 35 900 z "},"×":{"ha":508,"x_min":0,"x_max":0,"o":"m 14 603 l 167 450 l 14 297 l 101 210 l 254 363 l 407 210 l 494 297 l 342 450 l 494 603 l 407 690 l 254 538 l 101 690 z "},"n":{"ha":492,"x_min":0,"x_max":0,"o":"m 217 739 b 246 775 217 763 231 775 b 274 739 261 775 274 763 l 274 0 l 457 0 l 457 743 b 322 913 457 882 399 913 b 214 871 290 913 243 900 l 199 900 l 35 900 l 35 0 l 217 0 z "},"ń":{"ha":492,"x_min":0,"x_max":0,"o":"m 217 739 b 246 775 217 763 231 775 b 274 739 261 775 274 763 l 274 0 l 457 0 l 457 743 b 322 913 457 882 399 913 b 214 871 290 913 243 900 l 199 900 l 35 900 l 35 0 l 217 0 z m 274 1136 l 167 972 l 290 972 l 492 1136 z "},"ň":{"ha":492,"x_min":0,"x_max":0,"o":"m 217 739 b 246 775 217 763 231 775 b 274 739 261 775 274 763 l 274 0 l 457 0 l 457 743 b 322 913 457 882 399 913 b 214 871 290 913 243 900 l 199 900 l 35 900 l 35 0 l 217 0 z m 179 1144 l 7 1144 l 165 972 l 336 972 l 483 1144 l 318 1144 l 250 1064 z "},"ņ":{"ha":492,"x_min":0,"x_max":0,"o":"m 217 739 b 246 775 217 763 231 775 b 274 739 261 775 274 763 l 274 0 l 457 0 l 457 743 b 322 913 457 882 399 913 b 214 871 290 913 243 900 l 199 900 l 35 900 l 35 0 l 217 0 z m 336 -97 l 154 -97 l 154 -265 l 231 -265 l 182 -460 l 336 -265 z "},"ñ":{"ha":492,"x_min":0,"x_max":0,"o":"m 217 739 b 246 775 217 763 231 775 b 274 739 261 775 274 763 l 274 0 l 457 0 l 457 743 b 322 913 457 882 399 913 b 214 871 290 913 243 900 l 199 900 l 35 900 l 35 0 l 217 0 z m 338 1103 b 272 1121 317 1103 294 1111 l 235 1135 b 143 1154 207 1144 178 1154 b -12 1036 78 1154 32 1113 l 83 972 b 158 1033 101 1007 125 1033 b 224 1015 179 1033 203 1025 l 268 997 b 358 976 300 985 335 976 b 503 1088 414 976 465 1010 l 404 1158 b 338 1103 392 1121 369 1103 z "},"#":{"ha":1008,"x_min":0,"x_max":0,"o":"m 338 0 l 550 0 l 550 1131 l 367 1131 l 367 524 l 246 1131 l 42 1131 l 42 0 l 219 0 l 219 604 z m 981 763 b 813 942 981 892 929 942 l 769 942 b 614 763 658 942 614 896 l 614 561 b 781 381 614 429 665 381 l 825 381 b 981 561 936 381 981 426 z m 825 546 b 796 510 825 522 811 510 b 768 546 781 510 768 522 l 768 778 b 797 813 768 800 782 813 b 825 778 813 813 825 800 z m 631 190 l 964 190 l 964 315 l 631 315 z "},"o":{"ha":492,"x_min":0,"x_max":0,"o":"m 457 728 b 289 907 457 857 406 907 l 190 907 b 35 728 79 907 35 861 l 35 176 b 201 -4 35 44 86 -4 l 301 -4 b 457 176 413 -4 457 42 z m 274 161 b 244 125 274 138 260 125 b 217 161 229 125 217 138 l 217 743 b 246 778 217 765 231 778 b 274 743 261 778 274 765 z "},"ó":{"ha":492,"x_min":0,"x_max":0,"o":"m 457 728 b 289 907 457 857 406 907 l 190 907 b 35 728 79 907 35 861 l 35 176 b 201 -4 35 44 86 -4 l 301 -4 b 457 176 413 -4 457 42 z m 274 161 b 244 125 274 138 260 125 b 217 161 229 125 217 138 l 217 743 b 246 778 217 765 231 778 b 274 743 261 778 274 765 z m 271 1136 l 164 972 l 288 972 l 489 1136 z "},"ô":{"ha":492,"x_min":0,"x_max":0,"o":"m 457 728 b 289 907 457 857 406 907 l 190 907 b 35 728 79 907 35 861 l 35 176 b 201 -4 35 44 86 -4 l 301 -4 b 457 176 413 -4 457 42 z m 274 161 b 244 125 274 138 260 125 b 217 161 229 125 217 138 l 217 743 b 246 778 217 765 231 778 b 274 743 261 778 274 765 z m 318 972 l 483 972 l 336 1144 l 165 1144 l 7 972 l 179 972 l 250 1051 z "},"ö":{"ha":492,"x_min":0,"x_max":0,"o":"m 457 728 b 289 907 457 857 406 907 l 190 907 b 35 728 79 907 35 861 l 35 176 b 201 -4 35 44 86 -4 l 301 -4 b 457 176 413 -4 457 42 z m 274 161 b 244 125 274 138 260 125 b 217 161 229 125 217 138 l 217 743 b 246 778 217 765 231 778 b 274 743 261 778 274 765 z m 33 1131 l 33 972 l 190 972 l 190 1131 z m 299 1131 l 299 972 l 458 972 l 458 1131 z "},"œ":{"ha":725,"x_min":0,"x_max":0,"o":"m 514 161 b 485 125 514 138 500 125 b 457 157 468 125 458 136 l 457 414 l 690 414 l 690 728 b 522 907 690 857 638 907 l 432 907 b 361 883 404 907 382 904 b 289 907 340 904 317 907 l 190 907 b 35 728 79 907 35 861 l 35 176 b 201 -4 35 44 86 -4 l 301 -4 b 371 18 328 -4 350 -3 b 443 -4 392 -3 415 -4 l 542 -4 b 690 176 651 -4 690 42 l 690 335 l 514 335 z m 274 161 b 244 125 274 138 260 125 b 217 161 229 125 217 138 l 217 743 b 246 778 217 765 231 778 b 274 743 261 778 274 765 z m 457 743 b 486 778 457 765 471 778 b 514 743 501 778 514 765 l 514 529 l 457 529 z "},"˛":{"ha":417,"x_min":0,"x_max":0,"o":"m 436 -106 b 367 -121 418 -112 394 -121 b 322 -82 338 -121 322 -108 b 388 13 322 -54 350 -25 l 299 13 b 233 -99 261 -21 233 -53 b 356 -194 233 -154 278 -194 b 461 -167 406 -194 435 -178 z "},"ò":{"ha":492,"x_min":0,"x_max":0,"o":"m 457 728 b 289 907 457 857 406 907 l 190 907 b 35 728 79 907 35 861 l 35 176 b 201 -4 35 44 86 -4 l 301 -4 b 457 176 413 -4 457 42 z m 274 161 b 244 125 274 138 260 125 b 217 161 229 125 217 138 l 217 743 b 246 778 217 765 231 778 b 274 743 261 778 274 765 z m 217 972 l 340 972 l 233 1136 l 15 1136 z "},"ő":{"ha":492,"x_min":0,"x_max":0,"o":"m 457 728 b 289 907 457 857 406 907 l 190 907 b 35 728 79 907 35 861 l 35 176 b 201 -4 35 44 86 -4 l 301 -4 b 457 176 413 -4 457 42 z m 274 161 b 244 125 274 138 260 125 b 217 161 229 125 217 138 l 217 743 b 246 778 217 765 231 778 b 274 743 261 778 274 765 z m 158 1161 l 86 974 l 176 974 l 324 1161 z m 368 1161 l 296 974 l 386 974 l 533 1161 z "},"ō":{"ha":492,"x_min":0,"x_max":0,"o":"m 457 728 b 289 907 457 857 406 907 l 190 907 b 35 728 79 907 35 861 l 35 176 b 201 -4 35 44 86 -4 l 301 -4 b 457 176 413 -4 457 42 z m 274 161 b 244 125 274 138 260 125 b 217 161 229 125 217 138 l 217 743 b 246 778 217 765 231 778 b 274 743 261 778 274 765 z m 3 1076 l 3 972 l 489 972 l 489 1076 z "},"ª":{"ha":492,"x_min":0,"x_max":0,"o":"m 35 163 b 168 -8 35 22 92 -8 b 274 36 200 -8 244 7 l 289 0 l 457 0 l 457 900 l 274 900 l 274 868 b 168 913 244 897 200 913 b 35 743 92 913 35 882 z m 274 165 b 244 131 274 142 260 131 b 217 165 229 131 217 142 l 217 739 b 244 775 217 763 229 775 b 274 739 260 775 274 763 z "},"º":{"ha":422,"x_min":0,"x_max":0,"o":"m 394 863 b 226 1042 394 992 343 1042 l 183 1042 b 28 863 72 1042 28 996 l 28 661 b 194 481 28 529 79 481 l 239 481 b 394 661 350 481 394 526 z m 239 646 b 210 610 239 622 225 610 b 182 646 194 610 182 622 l 182 878 b 211 913 182 900 196 913 b 239 878 226 913 239 900 z m 44 290 l 378 290 l 378 415 l 44 415 z "},"ø":{"ha":492,"x_min":0,"x_max":0,"o":"m 457 728 b 429 850 457 779 447 821 l 469 951 l 431 969 l 396 882 b 289 907 369 899 333 907 l 190 907 b 35 728 79 907 35 861 l 35 176 b 65 49 35 119 44 78 l 31 -39 l 71 -58 l 100 17 b 201 -4 126 1 158 -4 l 301 -4 b 457 176 413 -4 457 42 z m 217 743 b 246 778 217 765 231 778 b 274 743 261 778 274 765 l 274 574 l 217 431 z m 274 161 b 244 125 274 138 260 125 b 217 161 229 125 217 138 l 217 311 l 274 456 z "},"õ":{"ha":492,"x_min":0,"x_max":0,"o":"m 457 728 b 289 907 457 857 406 907 l 190 907 b 35 728 79 907 35 861 l 35 176 b 201 -4 35 44 86 -4 l 301 -4 b 457 176 413 -4 457 42 z m 274 161 b 244 125 274 138 260 125 b 217 161 229 125 217 138 l 217 743 b 246 778 217 765 231 778 b 274 743 261 778 274 765 z m 338 1103 b 272 1121 317 1103 294 1111 l 235 1135 b 143 1154 207 1144 178 1154 b -12 1036 78 1154 32 1113 l 83 972 b 158 1033 101 1007 125 1033 b 224 1015 179 1033 203 1025 l 268 997 b 358 976 300 985 335 976 b 503 1088 414 976 465 1010 l 404 1158 b 338 1103 392 1121 369 1103 z "},"p":{"ha":492,"x_min":0,"x_max":0,"o":"m 457 738 b 322 907 457 876 399 907 b 217 863 290 907 246 892 l 201 900 l 35 900 l 35 -208 l 217 -208 l 217 32 b 322 -12 246 3 290 -12 b 457 157 399 -12 457 18 z m 217 735 b 246 769 217 758 231 769 b 274 735 261 769 274 758 l 274 161 b 246 125 274 138 261 125 b 217 161 231 125 217 138 z "},"¶":{"ha":686,"x_min":0,"x_max":0,"o":"m 540 -135 l 651 -135 l 651 989 l 203 989 b 35 808 88 989 35 940 l 35 447 b 297 278 35 303 85 278 l 297 -135 l 461 -135 l 461 847 l 540 847 z "},"(":{"ha":314,"x_min":0,"x_max":0,"o":"m 35 179 b 192 0 35 46 81 0 l 293 0 l 293 143 l 236 143 b 204 178 218 143 204 156 l 204 953 b 236 988 204 975 218 988 l 292 988 l 292 1131 l 192 1131 b 35 951 81 1131 35 1085 z "},")":{"ha":314,"x_min":0,"x_max":0,"o":"m 279 951 b 122 1131 279 1085 233 1131 l 22 1131 l 22 988 l 78 988 b 110 953 96 988 110 975 l 110 178 b 78 143 110 156 96 143 l 21 143 l 21 0 l 122 0 b 279 179 233 0 279 46 z "},"%":{"ha":953,"x_min":0,"x_max":0,"o":"m 636 1131 l 188 0 l 318 0 l 765 1131 z m 394 958 b 226 1138 394 1088 343 1138 l 183 1138 b 28 958 72 1138 28 1092 l 28 757 b 194 576 28 625 79 576 l 239 576 b 394 757 350 576 394 622 z m 239 742 b 210 706 239 718 225 706 b 182 742 194 706 182 718 l 182 974 b 211 1008 182 996 196 1008 b 239 974 226 1008 239 996 z m 925 375 b 757 554 925 504 874 554 l 714 554 b 558 375 603 554 558 508 l 558 174 b 725 -7 558 42 610 -7 l 769 -7 b 925 174 881 -7 925 39 z m 769 158 b 740 122 769 135 756 122 b 713 158 725 122 713 135 l 713 390 b 742 425 713 413 726 425 b 769 390 757 425 769 413 z "},".":{"ha":224,"x_min":0,"x_max":0,"o":"m 203 168 l 21 168 l 21 0 l 203 0 z "},"·":{"ha":224,"x_min":0,"x_max":0,"o":"m 203 654 l 21 654 l 21 486 l 203 486 z "},"‰":{"ha":1375,"x_min":0,"x_max":0,"o":"m 636 1131 l 188 0 l 318 0 l 765 1131 z m 394 958 b 226 1138 394 1088 343 1138 l 183 1138 b 28 958 72 1138 28 1092 l 28 757 b 194 576 28 625 79 576 l 239 576 b 394 757 350 576 394 622 z m 239 742 b 210 706 239 718 225 706 b 182 742 194 706 182 718 l 182 974 b 211 1008 182 996 196 1008 b 239 974 226 1008 239 996 z m 925 375 b 757 554 925 504 874 554 l 714 554 b 558 375 603 554 558 508 l 558 174 b 725 -7 558 42 610 -7 l 769 -7 b 925 174 881 -7 925 39 z m 769 158 b 740 122 769 135 756 122 b 713 158 725 122 713 135 l 713 390 b 742 425 713 413 726 425 b 769 390 757 425 769 413 z m 1347 375 b 1179 554 1347 504 1296 554 l 1136 554 b 981 375 1025 554 981 508 l 981 174 b 1147 -7 981 42 1032 -7 l 1192 -7 b 1347 174 1303 -7 1347 39 z m 1192 158 b 1163 122 1192 135 1178 122 b 1135 158 1147 122 1135 135 l 1135 390 b 1164 425 1135 413 1149 425 b 1192 390 1179 425 1192 413 z "},"π":{"ha":488,"x_min":0,"x_max":0,"o":"m 453 900 l 35 900 l 35 0 l 215 0 l 215 771 l 272 771 l 272 0 l 453 0 z "},"+":{"ha":583,"x_min":0,"x_max":0,"o":"m 14 388 l 229 388 l 229 172 l 354 172 l 354 388 l 569 388 l 569 513 l 354 513 l 354 728 l 229 728 l 229 513 l 14 513 z "},"±":{"ha":583,"x_min":0,"x_max":0,"o":"m 14 488 l 229 488 l 229 272 l 354 272 l 354 488 l 569 488 l 569 613 l 354 613 l 354 828 l 229 828 l 229 613 l 14 613 z m 14 72 l 569 72 l 569 197 l 14 197 z "},"∏":{"ha":543,"x_min":0,"x_max":0,"o":"m 303 0 l 501 0 l 501 1131 l 42 1131 l 42 0 l 239 0 l 239 978 l 303 978 z "},"q":{"ha":492,"x_min":0,"x_max":0,"o":"m 35 157 b 168 -12 35 18 92 -12 b 274 32 200 -12 244 3 l 274 -208 l 457 -208 l 457 900 l 289 900 l 274 863 b 168 907 244 892 200 907 b 35 738 92 907 35 876 z m 274 161 b 244 125 274 138 260 125 b 217 161 229 125 217 138 l 217 735 b 244 769 217 758 229 769 b 274 735 260 769 274 758 z "},"?":{"ha":482,"x_min":0,"x_max":0,"o":"m 288 231 l 288 364 b 454 754 288 497 454 482 l 454 960 b 297 1139 454 1093 408 1139 l 189 1139 b 28 960 72 1139 28 1089 l 28 763 l 206 763 l 206 961 b 236 996 206 983 219 996 b 268 961 254 996 268 983 l 268 788 b 106 403 268 575 106 613 l 106 231 z m 288 168 l 106 168 l 106 0 l 288 0 z "},"¿":{"ha":447,"x_min":0,"x_max":0,"o":"m 181 700 l 181 567 b 14 176 181 433 14 449 l 14 -29 b 171 -208 14 -162 60 -208 l 279 -208 b 440 -29 396 -208 440 -158 l 440 168 l 263 168 l 263 -31 b 232 -65 263 -53 249 -65 b 200 -31 214 -65 200 -53 l 200 143 b 363 528 200 356 363 318 l 363 700 z m 181 763 l 363 763 l 363 931 l 181 931 z "},"\"":{"ha":443,"x_min":0,"x_max":0,"o":"m 171 811 l 200 1131 l 14 1131 l 46 811 z m 400 811 l 429 1131 l 243 1131 l 275 811 z "},"„":{"ha":440,"x_min":0,"x_max":0,"o":"m 203 168 l 21 168 l 21 0 l 97 0 l 49 -194 l 203 0 z m 419 168 l 238 168 l 238 0 l 314 0 l 265 -194 l 419 0 z "},"“":{"ha":440,"x_min":0,"x_max":0,"o":"m 238 768 l 419 768 l 419 936 l 343 936 l 392 1131 l 238 936 z m 21 768 l 203 768 l 203 936 l 126 936 l 175 1131 l 21 936 z "},"”":{"ha":440,"x_min":0,"x_max":0,"o":"m 203 1131 l 21 1131 l 21 963 l 97 963 l 49 768 l 203 963 z m 419 1131 l 238 1131 l 238 963 l 314 963 l 265 768 l 419 963 z "},"‘":{"ha":224,"x_min":0,"x_max":0,"o":"m 21 768 l 203 768 l 203 936 l 126 936 l 175 1131 l 21 936 z "},"’":{"ha":224,"x_min":0,"x_max":0,"o":"m 203 1131 l 21 1131 l 21 963 l 97 963 l 49 768 l 203 963 z "},"‚":{"ha":224,"x_min":0,"x_max":0,"o":"m 203 168 l 21 168 l 21 0 l 97 0 l 49 -194 l 203 0 z "},"'":{"ha":214,"x_min":0,"x_max":0,"o":"m 171 811 l 200 1131 l 14 1131 l 46 811 z "},"r":{"ha":471,"x_min":0,"x_max":0,"o":"m 217 739 b 246 775 217 763 231 775 b 274 739 261 775 274 763 l 274 535 l 450 535 l 450 743 b 322 913 450 882 400 913 b 214 871 290 913 253 900 l 200 900 l 35 900 l 35 0 l 217 0 z "},"ŕ":{"ha":471,"x_min":0,"x_max":0,"o":"m 217 739 b 246 775 217 763 231 775 b 274 739 261 775 274 763 l 274 535 l 450 535 l 450 743 b 322 913 450 882 400 913 b 214 871 290 913 253 900 l 200 900 l 35 900 l 35 0 l 217 0 z m 246 1136 l 139 972 l 263 972 l 464 1136 z "},"ř":{"ha":471,"x_min":0,"x_max":0,"o":"m 217 739 b 246 775 217 763 231 775 b 274 739 261 775 274 763 l 274 535 l 450 535 l 450 743 b 322 913 450 882 400 913 b 214 871 290 913 253 900 l 200 900 l 35 900 l 35 0 l 217 0 z m 169 1144 l -3 1144 l 156 972 l 326 972 l 474 1144 l 308 1144 l 240 1064 z "},"ŗ":{"ha":471,"x_min":0,"x_max":0,"o":"m 217 739 b 246 775 217 763 231 775 b 274 739 261 775 274 763 l 274 535 l 450 535 l 450 743 b 322 913 450 882 400 913 b 214 871 290 913 253 900 l 200 900 l 35 900 l 35 0 l 217 0 z m 326 -97 l 144 -97 l 144 -265 l 221 -265 l 172 -460 l 326 -265 z "},"®":{"ha":1175,"x_min":0,"x_max":0,"o":"m 788 378 b 678 554 788 490 756 542 b 788 732 756 569 788 617 l 788 760 b 675 885 788 836 735 885 l 383 885 l 383 240 l 553 240 l 553 493 l 585 493 b 617 458 600 493 617 481 l 617 240 l 788 240 z m 617 647 b 585 613 617 625 600 613 l 553 613 l 553 768 l 586 768 b 617 732 601 768 617 756 z m 572 1132 b 21 567 301 1132 21 900 b 588 0 21 253 274 0 b 1154 567 900 0 1154 253 b 572 1132 1154 869 917 1132 z m 597 990 b 1013 567 801 990 1013 815 b 588 142 1013 331 821 142 b 164 567 350 142 164 331 b 597 990 164 792 338 990 z "},"˚":{"ha":417,"x_min":0,"x_max":0,"o":"m 208 1228 b 81 1100 136 1228 81 1172 b 208 972 81 1028 136 972 b 338 1100 279 972 338 1028 b 208 1228 338 1172 281 1228 z m 207 1149 b 258 1099 235 1149 258 1125 b 207 1047 258 1071 235 1047 b 157 1099 181 1047 157 1069 b 207 1149 157 1126 181 1149 z "},"s":{"ha":478,"x_min":0,"x_max":0,"o":"m 267 157 b 238 122 267 135 253 122 b 210 157 222 122 210 135 l 210 326 l 35 326 l 35 172 b 194 -8 35 43 79 -8 l 293 -8 b 450 172 404 -8 450 39 l 450 308 b 210 640 450 519 210 513 l 210 743 b 239 778 210 765 224 778 b 267 743 254 778 267 765 l 267 601 l 443 601 l 443 728 b 282 907 443 857 399 907 l 185 907 b 28 728 74 907 28 861 l 28 607 b 267 286 28 418 267 419 z "},"ś":{"ha":478,"x_min":0,"x_max":0,"o":"m 267 157 b 238 122 267 135 253 122 b 210 157 222 122 210 135 l 210 326 l 35 326 l 35 172 b 194 -8 35 43 79 -8 l 293 -8 b 450 172 404 -8 450 39 l 450 308 b 210 640 450 519 210 513 l 210 743 b 239 778 210 765 224 778 b 267 743 254 778 267 765 l 267 601 l 443 601 l 443 728 b 282 907 443 857 399 907 l 185 907 b 28 728 74 907 28 861 l 28 607 b 267 286 28 418 267 419 z m 261 1136 l 154 972 l 278 972 l 479 1136 z "},"š":{"ha":478,"x_min":0,"x_max":0,"o":"m 267 157 b 238 122 267 135 253 122 b 210 157 222 122 210 135 l 210 326 l 35 326 l 35 172 b 194 -8 35 43 79 -8 l 293 -8 b 450 172 404 -8 450 39 l 450 308 b 210 640 450 519 210 513 l 210 743 b 239 778 210 765 224 778 b 267 743 254 778 267 765 l 267 601 l 443 601 l 443 728 b 282 907 443 857 399 907 l 185 907 b 28 728 74 907 28 861 l 28 607 b 267 286 28 418 267 419 z m 172 1144 l 0 1144 l 158 972 l 329 972 l 476 1144 l 311 1144 l 243 1064 z "},"ş":{"ha":478,"x_min":0,"x_max":0,"o":"m 219 -117 b 272 -157 251 -117 272 -131 b 238 -193 272 -181 261 -193 b 204 -168 219 -193 211 -183 l 114 -168 b 235 -264 132 -233 181 -264 b 364 -150 308 -264 364 -210 b 276 -69 364 -106 332 -74 l 276 -8 l 293 -8 b 450 172 404 -8 450 39 l 450 308 b 210 640 450 519 210 513 l 210 743 b 239 778 210 765 224 778 b 267 743 254 778 267 765 l 267 601 l 443 601 l 443 728 b 282 907 443 857 399 907 l 185 907 b 28 728 74 907 28 861 l 28 607 b 267 286 28 418 267 419 l 267 157 b 238 122 267 135 253 122 b 210 157 222 122 210 135 l 210 326 l 35 326 l 35 172 b 194 -8 35 43 79 -8 l 204 -8 l 204 -117 z "},"ŝ":{"ha":478,"x_min":0,"x_max":0,"o":"m 267 157 b 238 122 267 135 253 122 b 210 157 222 122 210 135 l 210 326 l 35 326 l 35 172 b 194 -8 35 43 79 -8 l 293 -8 b 450 172 404 -8 450 39 l 450 308 b 210 640 450 519 210 513 l 210 743 b 239 778 210 765 224 778 b 267 743 254 778 267 765 l 267 601 l 443 601 l 443 728 b 282 907 443 857 399 907 l 185 907 b 28 728 74 907 28 861 l 28 607 b 267 286 28 418 267 419 z m 311 972 l 476 972 l 329 1144 l 158 1144 l 0 972 l 172 972 l 243 1051 z "},"ș":{"ha":478,"x_min":0,"x_max":0,"o":"m 267 157 b 238 122 267 135 253 122 b 210 157 222 122 210 135 l 210 326 l 35 326 l 35 172 b 194 -8 35 43 79 -8 l 293 -8 b 450 172 404 -8 450 39 l 450 308 b 210 640 450 519 210 513 l 210 743 b 239 778 210 765 224 778 b 267 743 254 778 267 765 l 267 601 l 443 601 l 443 728 b 282 907 443 857 399 907 l 185 907 b 28 728 74 907 28 861 l 28 607 b 267 286 28 418 267 419 z m 332 -97 l 150 -97 l 150 -265 l 226 -265 l 178 -460 l 332 -265 z "},"§":{"ha":492,"x_min":0,"x_max":0,"o":"m 274 24 b 244 -11 274 1 260 -11 b 217 24 229 -11 217 1 l 217 82 l 42 82 l 42 39 b 201 -142 42 -90 86 -142 l 300 -142 b 457 39 411 -142 457 -94 l 457 64 b 376 231 457 147 421 193 b 457 400 432 251 457 301 l 457 536 b 217 868 457 747 217 740 l 217 901 b 246 936 217 924 231 936 b 274 901 261 936 274 924 l 274 829 l 450 829 l 450 886 b 289 1065 450 1015 406 1065 l 192 1065 b 35 886 81 1065 35 1019 l 35 835 b 146 658 35 746 89 696 b 35 483 68 646 35 596 l 35 363 b 274 42 35 174 274 175 z m 244 350 b 217 396 218 350 217 378 l 217 499 b 246 533 217 521 231 533 b 274 504 261 533 274 522 l 274 379 b 244 350 274 358 260 350 z "},";":{"ha":238,"x_min":0,"x_max":0,"o":"m 210 654 l 28 654 l 28 486 l 210 486 z m 210 168 l 28 168 l 28 0 l 104 0 l 56 -194 l 210 0 z "},"/":{"ha":485,"x_min":0,"x_max":0,"o":"m 326 1151 l 1 -19 l 160 -19 l 483 1151 z "},"Ă":{"ha":519,"x_min":0,"x_max":0,"o":"m 0 0 l 190 0 l 211 285 l 308 285 l 331 0 l 519 0 l 411 1131 l 113 1131 z m 260 936 l 297 438 l 222 438 z m 86 1388 b 258 1203 96 1265 157 1203 b 432 1388 360 1203 422 1265 l 329 1388 b 258 1303 322 1339 308 1303 b 190 1388 208 1303 196 1339 z "},"£":{"ha":572,"x_min":0,"x_max":0,"o":"m 28 510 l 86 510 l 86 438 l 28 438 l 28 368 l 86 368 l 86 153 l 28 153 l 28 0 l 538 0 l 538 153 l 283 153 l 283 368 l 533 368 l 533 438 l 283 438 l 283 510 l 533 510 l 533 579 l 283 579 l 283 957 b 317 993 283 981 301 993 b 347 957 332 993 347 981 l 347 756 l 538 756 l 538 957 b 369 1138 538 1089 486 1138 l 242 1138 b 86 957 131 1138 86 1092 l 86 579 l 28 579 z "},"t":{"ha":308,"x_min":0,"x_max":0,"o":"m 7 775 l 53 775 l 53 164 b 160 0 53 57 67 0 l 301 0 l 301 125 l 264 125 b 236 161 249 125 236 138 l 236 775 l 299 775 l 299 900 l 236 900 l 236 1021 l 53 1021 l 53 900 l 7 900 z "},"ŧ":{"ha":336,"x_min":0,"x_max":0,"o":"m 7 674 l 7 569 l 67 569 l 67 164 b 174 0 67 57 81 0 l 315 0 l 315 125 l 278 125 b 250 161 263 125 250 138 l 250 569 l 329 569 l 329 674 l 250 674 l 250 775 l 313 775 l 313 900 l 250 900 l 250 1021 l 67 1021 l 67 900 l 21 900 l 21 775 l 67 775 l 67 674 z "},"ť":{"ha":403,"x_min":0,"x_max":0,"o":"m 7 775 l 53 775 l 53 164 b 160 0 53 57 67 0 l 301 0 l 301 125 l 264 125 b 236 161 249 125 236 138 l 236 775 l 299 775 l 299 900 l 236 900 l 236 1021 l 53 1021 l 53 900 l 7 900 z m 482 1131 l 300 1131 l 300 963 l 376 963 l 328 774 l 482 963 z "},"ţ":{"ha":308,"x_min":0,"x_max":0,"o":"m 7 775 l 53 775 l 53 164 b 160 0 53 57 67 0 l 301 0 l 301 125 l 264 125 b 236 161 249 125 236 138 l 236 775 l 299 775 l 299 900 l 236 900 l 236 1021 l 53 1021 l 53 900 l 7 900 z m 272 -97 l 90 -97 l 90 -265 l 167 -265 l 118 -460 l 272 -265 z "},"þ":{"ha":492,"x_min":0,"x_max":0,"o":"m 457 743 b 322 913 457 882 399 913 b 217 868 290 913 246 897 l 217 1131 l 35 1131 l 35 -208 l 217 -208 l 217 36 b 322 -8 246 7 290 -8 b 457 163 399 -8 457 22 z m 217 739 b 246 775 217 763 231 775 b 274 739 261 775 274 763 l 274 165 b 246 131 274 142 261 131 b 217 165 231 131 217 142 z "},"˜":{"ha":417,"x_min":0,"x_max":0,"o":"m 301 1103 b 236 1121 281 1103 258 1111 l 199 1135 b 107 1154 171 1144 142 1154 b -49 1036 42 1154 -4 1113 l 47 972 b 122 1033 65 1007 89 1033 b 188 1015 143 1033 167 1025 l 232 997 b 322 976 264 985 299 976 b 467 1088 378 976 429 1010 l 368 1158 b 301 1103 356 1121 333 1103 z "},"™":{"ha":1004,"x_min":0,"x_max":0,"o":"m 122 500 l 279 500 l 279 1006 l 388 1006 l 388 1131 l 14 1131 l 14 1006 l 122 1006 z m 822 914 l 822 500 l 976 500 l 976 1131 l 804 1131 l 713 888 l 622 1131 l 436 1131 l 436 500 l 576 500 l 576 914 l 671 500 l 729 500 z "},"u":{"ha":492,"x_min":0,"x_max":0,"o":"m 274 161 b 244 125 274 138 260 125 b 217 161 229 125 217 138 l 217 900 l 35 900 l 35 157 b 168 -12 35 18 92 -12 b 276 29 200 -12 249 0 l 290 0 l 457 0 l 457 900 l 274 900 z "},"ú":{"ha":492,"x_min":0,"x_max":0,"o":"m 274 161 b 244 125 274 138 260 125 b 217 161 229 125 217 138 l 217 900 l 35 900 l 35 157 b 168 -12 35 18 92 -12 b 276 29 200 -12 249 0 l 290 0 l 457 0 l 457 900 l 274 900 z m 274 1136 l 167 972 l 290 972 l 492 1136 z "},"ŭ":{"ha":492,"x_min":0,"x_max":0,"o":"m 274 161 b 244 125 274 138 260 125 b 217 161 229 125 217 138 l 217 900 l 35 900 l 35 157 b 168 -12 35 18 92 -12 b 276 29 200 -12 249 0 l 290 0 l 457 0 l 457 900 l 274 900 z m 72 1157 b 244 972 82 1035 143 972 b 418 1157 346 972 408 1035 l 315 1157 b 244 1072 308 1108 294 1072 b 176 1157 194 1072 182 1108 z "},"û":{"ha":492,"x_min":0,"x_max":0,"o":"m 274 161 b 244 125 274 138 260 125 b 217 161 229 125 217 138 l 217 900 l 35 900 l 35 157 b 168 -12 35 18 92 -12 b 276 29 200 -12 249 0 l 290 0 l 457 0 l 457 900 l 274 900 z m 318 972 l 483 972 l 336 1144 l 165 1144 l 7 972 l 179 972 l 250 1051 z "},"ü":{"ha":492,"x_min":0,"x_max":0,"o":"m 274 161 b 244 125 274 138 260 125 b 217 161 229 125 217 138 l 217 900 l 35 900 l 35 157 b 168 -12 35 18 92 -12 b 276 29 200 -12 249 0 l 290 0 l 457 0 l 457 900 l 274 900 z m 33 1131 l 33 972 l 190 972 l 190 1131 z m 299 1131 l 299 972 l 458 972 l 458 1131 z "},"ù":{"ha":492,"x_min":0,"x_max":0,"o":"m 274 161 b 244 125 274 138 260 125 b 217 161 229 125 217 138 l 217 900 l 35 900 l 35 157 b 168 -12 35 18 92 -12 b 276 29 200 -12 249 0 l 290 0 l 457 0 l 457 900 l 274 900 z m 229 972 l 353 972 l 246 1136 l 28 1136 z "},"ű":{"ha":492,"x_min":0,"x_max":0,"o":"m 274 161 b 244 125 274 138 260 125 b 217 161 229 125 217 138 l 217 900 l 35 900 l 35 157 b 168 -12 35 18 92 -12 b 276 29 200 -12 249 0 l 290 0 l 457 0 l 457 900 l 274 900 z m 167 1161 l 94 974 l 185 974 l 332 1161 z m 376 1161 l 304 974 l 394 974 l 542 1161 z "},"ū":{"ha":492,"x_min":0,"x_max":0,"o":"m 274 161 b 244 125 274 138 260 125 b 217 161 229 125 217 138 l 217 900 l 35 900 l 35 157 b 168 -12 35 18 92 -12 b 276 29 200 -12 249 0 l 290 0 l 457 0 l 457 900 l 274 900 z m 3 1076 l 3 972 l 489 972 l 489 1076 z "},"_":{"ha":528,"x_min":0,"x_max":0,"o":"m 0 -62 l 528 -62 l 528 63 l 0 63 z "}," ":{"ha":243,"x_min":0,"x_max":0,"o":""},"­":{"ha":361,"x_min":0,"x_max":0,"o":"m 14 388 l 347 388 l 347 513 l 14 513 z "},"Ḃ":{"ha":529,"x_min":0,"x_max":0,"o":"m 501 410 b 392 586 501 522 469 574 b 501 764 469 601 501 649 l 501 950 b 333 1131 501 1082 449 1131 l 42 1131 l 42 0 l 333 0 b 501 181 449 0 501 49 z m 303 181 b 272 144 303 157 288 144 l 239 144 l 239 511 l 271 511 b 303 476 286 511 303 499 z m 303 693 b 271 658 303 671 286 658 l 239 658 l 239 986 l 272 986 b 303 950 288 986 303 974 z m 171 1361 l 171 1203 l 326 1203 l 326 1361 z "},"ḃ":{"ha":492,"x_min":0,"x_max":0,"o":"m 457 743 b 322 913 457 882 399 913 b 217 868 290 913 246 897 l 217 1131 l 35 1131 l 35 0 l 201 0 l 217 36 b 322 -8 246 7 290 -8 b 457 163 399 -8 457 22 z m 217 739 b 246 775 217 763 231 775 b 274 739 261 775 274 763 l 274 165 b 246 131 274 142 261 131 b 217 165 231 131 217 142 z m 279 1131 l 279 972 l 435 972 l 435 1131 z "},"Ḋ":{"ha":536,"x_min":0,"x_max":0,"o":"m 501 950 b 333 1131 501 1082 449 1131 l 42 1131 l 42 0 l 344 0 b 501 181 456 0 501 46 z m 303 181 b 271 146 303 158 286 146 l 239 146 l 239 986 l 272 986 b 303 950 288 986 303 974 z m 168 1361 l 168 1203 l 324 1203 l 324 1361 z "},"ḋ":{"ha":492,"x_min":0,"x_max":0,"o":"m 35 163 b 168 -8 35 22 92 -8 b 274 36 200 -8 244 7 l 289 0 l 457 0 l 457 1131 l 274 1131 l 274 868 b 168 913 244 897 200 913 b 35 743 92 913 35 882 z m 274 165 b 244 131 274 142 260 131 b 217 165 229 131 217 142 l 217 739 b 244 775 217 763 229 775 b 274 739 260 775 274 763 z m 58 1131 l 58 972 l 214 972 l 214 1131 z "},"Ḟ":{"ha":401,"x_min":0,"x_max":0,"o":"m 239 499 l 374 499 l 374 651 l 239 651 l 239 978 l 388 978 l 388 1131 l 42 1131 l 42 0 l 239 0 z m 126 1361 l 126 1203 l 282 1203 l 282 1361 z "},"ḟ":{"ha":308,"x_min":0,"x_max":0,"o":"m 7 775 l 53 775 l 53 0 l 236 0 l 236 775 l 299 775 l 299 900 l 236 900 l 236 969 b 264 1006 236 993 249 1006 l 301 1006 l 301 1131 l 190 1131 b 53 967 97 1131 53 1104 l 53 900 l 7 900 z m 106 1368 l 106 1210 l 261 1210 l 261 1368 z "},"Ṁ":{"ha":721,"x_min":0,"x_max":0,"o":"m 497 664 l 497 0 l 679 0 l 679 1131 l 451 1131 l 360 582 l 269 1131 l 42 1131 l 42 0 l 224 0 l 224 664 l 318 0 l 404 0 z m 282 1361 l 282 1203 l 438 1203 l 438 1361 z "},"ṁ":{"ha":732,"x_min":0,"x_max":0,"o":"m 217 739 b 246 775 217 763 231 775 b 274 739 261 775 274 763 l 274 0 l 457 0 l 457 743 b 486 775 458 764 468 775 b 514 739 501 775 514 763 l 514 0 l 697 0 l 697 743 b 563 913 697 882 639 913 b 436 853 531 913 471 899 b 322 913 413 899 372 913 b 214 871 290 913 243 900 l 199 900 l 35 900 l 35 0 l 217 0 z m 288 1131 l 288 972 l 443 972 l 443 1131 z "},"Ṗ":{"ha":529,"x_min":0,"x_max":0,"o":"m 190 1361 l 190 1203 l 346 1203 l 346 1361 z m 501 950 b 333 1131 501 1082 449 1131 l 42 1131 l 42 0 l 239 0 l 239 419 l 301 419 b 501 589 461 419 501 460 z m 303 601 b 271 567 303 579 286 567 l 239 567 l 239 986 l 272 986 b 303 950 288 986 303 974 z "},"ṗ":{"ha":492,"x_min":0,"x_max":0,"o":"m 457 738 b 322 907 457 876 399 907 b 217 863 290 907 246 892 l 201 900 l 35 900 l 35 -208 l 217 -208 l 217 32 b 322 -12 246 3 290 -12 b 457 157 399 -12 457 18 z m 217 735 b 246 769 217 758 231 769 b 274 735 261 769 274 758 l 274 161 b 246 125 274 138 261 125 b 217 161 231 125 217 138 z m 168 1131 l 168 972 l 324 972 l 324 1131 z "},"Ṡ":{"ha":506,"x_min":0,"x_max":0,"o":"m 286 167 b 254 132 286 144 272 132 b 224 167 233 132 224 143 l 224 404 l 35 404 l 35 168 b 194 -12 35 39 79 -12 l 321 -12 b 478 168 432 -12 478 35 l 478 403 b 224 788 478 613 224 660 l 224 968 b 256 1003 224 990 238 1003 b 286 968 272 1003 286 990 l 286 763 l 471 763 l 471 967 b 310 1146 471 1096 426 1146 l 185 1146 b 28 967 74 1146 28 1100 l 28 754 b 286 364 28 567 286 496 z m 175 1361 l 175 1203 l 331 1203 l 331 1361 z "},"ṡ":{"ha":478,"x_min":0,"x_max":0,"o":"m 267 157 b 238 122 267 135 253 122 b 210 157 222 122 210 135 l 210 326 l 35 326 l 35 172 b 194 -8 35 43 79 -8 l 293 -8 b 450 172 404 -8 450 39 l 450 308 b 210 640 450 519 210 513 l 210 743 b 239 778 210 765 224 778 b 267 743 254 778 267 765 l 267 601 l 443 601 l 443 728 b 282 907 443 857 399 907 l 185 907 b 28 728 74 907 28 861 l 28 607 b 267 286 28 418 267 419 z m 161 1131 l 161 972 l 317 972 l 317 1131 z "},"Ṫ":{"ha":443,"x_min":0,"x_max":0,"o":"m 122 0 l 321 0 l 321 978 l 429 978 l 429 1131 l 14 1131 l 14 978 l 122 978 z m 143 1361 l 143 1203 l 299 1203 l 299 1361 z "},"ṫ":{"ha":308,"x_min":0,"x_max":0,"o":"m 7 775 l 53 775 l 53 164 b 160 0 53 57 67 0 l 301 0 l 301 125 l 264 125 b 236 161 249 125 236 138 l 236 775 l 299 775 l 299 900 l 236 900 l 236 1021 l 53 1021 l 53 900 l 7 900 z m 67 1269 l 67 1111 l 222 1111 l 222 1269 z "},"ų":{"ha":492,"x_min":0,"x_max":0,"o":"m 442 -106 b 372 -121 424 -112 400 -121 b 328 -82 343 -121 328 -108 b 379 0 328 -56 347 -32 l 457 0 l 457 900 l 274 900 l 274 161 b 244 125 274 138 260 125 b 217 161 229 125 217 138 l 217 900 l 35 900 l 35 157 b 168 -12 35 18 92 -12 b 276 29 200 -12 249 0 l 290 0 b 239 -99 258 -29 239 -58 b 361 -194 239 -154 283 -194 b 467 -167 411 -194 440 -178 z "},"ů":{"ha":492,"x_min":0,"x_max":0,"o":"m 274 161 b 244 125 274 138 260 125 b 217 161 229 125 217 138 l 217 900 l 35 900 l 35 157 b 168 -12 35 18 92 -12 b 276 29 200 -12 249 0 l 290 0 l 457 0 l 457 900 l 274 900 z m 244 1228 b 117 1100 172 1228 117 1172 b 244 972 117 1028 172 972 b 374 1100 315 972 374 1028 b 244 1228 374 1172 317 1228 z m 243 1149 b 294 1099 271 1149 294 1125 b 243 1047 294 1071 271 1047 b 193 1099 217 1047 193 1069 b 243 1149 193 1126 217 1149 z "},"ũ":{"ha":492,"x_min":0,"x_max":0,"o":"m 274 161 b 244 125 274 138 260 125 b 217 161 229 125 217 138 l 217 900 l 35 900 l 35 157 b 168 -12 35 18 92 -12 b 276 29 200 -12 249 0 l 290 0 l 457 0 l 457 900 l 274 900 z m 338 1103 b 272 1121 317 1103 294 1111 l 235 1135 b 143 1154 207 1144 178 1154 b -12 1036 78 1154 32 1113 l 83 972 b 158 1033 101 1007 125 1033 b 224 1015 179 1033 203 1025 l 268 997 b 358 976 300 985 335 976 b 503 1088 414 976 465 1010 l 404 1158 b 338 1103 392 1121 369 1103 z "},"v":{"ha":443,"x_min":0,"x_max":0,"o":"m 106 0 l 342 0 l 443 900 l 268 900 l 222 208 l 176 900 l 0 900 z "},"w":{"ha":711,"x_min":0,"x_max":0,"o":"m 711 900 l 536 900 l 500 310 l 465 900 l 247 900 l 211 310 l 176 900 l 0 900 l 106 0 l 319 0 l 356 644 l 392 0 l 606 0 z "},"ẃ":{"ha":711,"x_min":0,"x_max":0,"o":"m 711 900 l 536 900 l 500 310 l 465 900 l 247 900 l 211 310 l 176 900 l 0 900 l 106 0 l 319 0 l 356 644 l 392 0 l 606 0 z m 389 1136 l 282 972 l 406 972 l 607 1136 z "},"ŵ":{"ha":711,"x_min":0,"x_max":0,"o":"m 711 900 l 536 900 l 500 310 l 465 900 l 247 900 l 211 310 l 176 900 l 0 900 l 106 0 l 319 0 l 356 644 l 392 0 l 606 0 z m 428 972 l 593 972 l 446 1144 l 275 1144 l 117 972 l 289 972 l 360 1051 z "},"ẅ":{"ha":711,"x_min":0,"x_max":0,"o":"m 711 900 l 536 900 l 500 310 l 465 900 l 247 900 l 211 310 l 176 900 l 0 900 l 106 0 l 319 0 l 356 644 l 392 0 l 606 0 z m 143 1131 l 143 972 l 300 972 l 300 1131 z m 408 1131 l 408 972 l 568 972 l 568 1131 z "},"ẁ":{"ha":711,"x_min":0,"x_max":0,"o":"m 711 900 l 536 900 l 500 310 l 465 900 l 247 900 l 211 310 l 176 900 l 0 900 l 106 0 l 319 0 l 356 644 l 392 0 l 606 0 z m 346 972 l 469 972 l 363 1136 l 144 1136 z "},"x":{"ha":474,"x_min":0,"x_max":0,"o":"m 289 0 l 474 0 l 385 475 l 449 900 l 272 900 l 238 600 l 201 900 l 25 900 l 89 475 l 0 0 l 185 0 l 238 361 z "},"y":{"ha":443,"x_min":0,"x_max":0,"o":"m 106 0 l 186 0 l 165 -208 l 318 -208 l 443 900 l 268 900 l 222 224 l 176 900 l 0 900 z "},"ý":{"ha":443,"x_min":0,"x_max":0,"o":"m 106 0 l 186 0 l 165 -208 l 318 -208 l 443 900 l 268 900 l 222 224 l 176 900 l 0 900 z m 240 1136 l 133 972 l 257 972 l 458 1136 z "},"ŷ":{"ha":443,"x_min":0,"x_max":0,"o":"m 106 0 l 186 0 l 165 -208 l 318 -208 l 443 900 l 268 900 l 222 224 l 176 900 l 0 900 z m 294 972 l 460 972 l 313 1144 l 142 1144 l -17 972 l 156 972 l 226 1051 z "},"ÿ":{"ha":443,"x_min":0,"x_max":0,"o":"m 106 0 l 186 0 l 165 -208 l 318 -208 l 443 900 l 268 900 l 222 224 l 176 900 l 0 900 z m 8 1131 l 8 972 l 165 972 l 165 1131 z m 274 1131 l 274 972 l 433 972 l 433 1131 z "},"¥":{"ha":496,"x_min":0,"x_max":0,"o":"m 1 326 l 150 326 l 150 250 l 1 250 l 1 181 l 150 181 l 150 0 l 347 0 l 347 181 l 496 181 l 496 250 l 347 250 l 347 326 l 496 326 l 496 396 l 358 396 l 496 1131 l 310 1131 l 249 622 l 188 1131 l 0 1131 l 138 396 l 1 396 z "},"ỳ":{"ha":443,"x_min":0,"x_max":0,"o":"m 106 0 l 186 0 l 165 -208 l 318 -208 l 443 900 l 268 900 l 222 224 l 176 900 l 0 900 z m 190 972 l 314 972 l 207 1136 l -11 1136 z "},"z":{"ha":374,"x_min":0,"x_max":0,"o":"m 14 0 l 367 0 l 367 125 l 192 125 l 367 760 l 367 900 l 26 900 l 26 775 l 189 775 l 14 142 z "},"ź":{"ha":374,"x_min":0,"x_max":0,"o":"m 14 0 l 367 0 l 367 125 l 192 125 l 367 760 l 367 900 l 26 900 l 26 775 l 189 775 l 14 142 z m 218 1136 l 111 972 l 235 972 l 436 1136 z "},"ž":{"ha":374,"x_min":0,"x_max":0,"o":"m 14 0 l 367 0 l 367 125 l 192 125 l 367 760 l 367 900 l 26 900 l 26 775 l 189 775 l 14 142 z m 125 1144 l -47 1144 l 111 972 l 282 972 l 429 1144 l 264 1144 l 196 1064 z "},"ż":{"ha":374,"x_min":0,"x_max":0,"o":"m 14 0 l 367 0 l 367 125 l 192 125 l 367 760 l 367 900 l 26 900 l 26 775 l 189 775 l 14 142 z m 113 1131 l 113 972 l 268 972 l 268 1131 z "},"∑":{"ha":422,"x_min":0,"x_max":0,"o":"m 21 975 l 165 571 l 21 156 l 21 0 l 401 0 l 401 139 l 206 139 l 361 571 l 206 992 l 401 992 l 401 1131 l 21 1131 z "},"∂":{"ha":492,"x_min":0,"x_max":0,"o":"m 301 -4 b 457 176 413 -4 457 42 l 457 767 b 171 1136 457 950 454 1136 b 58 1124 126 1136 96 1135 l 58 992 b 154 1006 90 1003 117 1006 b 274 838 267 1006 274 938 b 172 907 246 897 206 907 b 35 728 78 907 35 861 l 35 176 b 201 -4 35 44 86 -4 z m 274 161 b 244 125 274 138 260 125 b 217 161 229 125 217 138 l 217 735 b 246 769 217 757 231 769 b 274 735 261 769 274 757 z "},"≠":{"ha":597,"x_min":0,"x_max":0,"o":"m 21 658 l 21 533 l 242 533 l 196 367 l 21 367 l 21 242 l 161 242 l 94 0 l 253 0 l 319 242 l 576 242 l 576 367 l 354 367 l 400 533 l 576 533 l 576 658 l 435 658 l 501 903 l 344 903 l 276 658 z "},"A":{"ha":519,"x_min":0,"x_max":0,"o":"m 0 0 l 190 0 l 211 285 l 308 285 l 331 0 l 519 0 l 411 1131 l 113 1131 z m 260 936 l 297 438 l 222 438 z "},"Æ":{"ha":721,"x_min":0,"x_max":0,"o":"m 700 153 l 551 153 l 551 499 l 686 499 l 686 651 l 551 651 l 551 978 l 700 978 l 700 1131 l 207 1131 l 0 0 l 190 0 l 240 285 l 354 285 l 354 0 l 700 0 z m 354 936 l 354 438 l 267 438 z "},"Á":{"ha":519,"x_min":0,"x_max":0,"o":"m 0 0 l 190 0 l 211 285 l 308 285 l 331 0 l 519 0 l 411 1131 l 113 1131 z m 260 936 l 297 438 l 222 438 z m 285 1367 l 178 1203 l 301 1203 l 503 1367 z "}}}
